<?xml version="1.0" standalone="no"?>
<!DOCTYPE svg PUBLIC "-//W3C//DTD SVG 1.1//EN" "http://www.w3.org/Graphics/SVG/1.1/DTD/svg11.dtd" >
<!--
2013-9-30: Created.
-->
<svg>
<metadata>
Created by iconfont
</metadata>
<defs>

<font id="jeicon" horiz-adv-x="1024" >
  <font-face
    font-family="jeicon"
    font-weight="500"
    font-stretch="normal"
    units-per-em="1024"
    ascent="896"
    descent="-128"
  />
    <missing-glyph />
    
    <glyph glyph-name="play" unicode="&#58958;" d="M810.4 430.2L253.6 761.6c-6.8 4-13.8 6.4-21.8 6.4-21.8 0-39.6-18-39.6-40L192 728l0-688 0.2 0c0-22 17.8-40 39.6-40 8.2 0 15 2.8 22.4 6.8l556.2 331c13.2 11 21.6 27.6 21.6 46.2C832 402.6 823.6 419 810.4 430.2z"  horiz-adv-x="1024" />

    
    <glyph glyph-name="stop" unicode="&#59023;" d="M256 704h512c35.392 0 64-28.608 64-64v-512c0-35.392-28.608-64-64-64H256c-35.392 0-64 28.608-64 64V640c0 35.392 28.608 64 64 64z"  horiz-adv-x="1024" />

    
    <glyph glyph-name="more" unicode="&#58903;" d="M124.455107 388.967366m-117.229847 0a117.229847 117.229847 0 1 1 234.459693 0 117.229847 117.229847 0 1 1-234.459693 0ZM513.896631 388.967366m-117.229847 0a117.229847 117.229847 0 1 1 234.459693 0 117.229847 117.229847 0 1 1-234.459693 0ZM903.157523 388.967366m-117.229846 0a117.229847 117.229847 0 1 1 234.459693 0 117.229847 117.229847 0 1 1-234.459693 0Z"  horiz-adv-x="1024" />

    
    <glyph glyph-name="application" unicode="&#58936;" d="M919.296 97.562l-362.88-209.51a88.832 88.832 0 0 0-88.832 0l-362.88 209.51a88.806 88.806 0 0 0-44.416 76.928V593.51a88.803 88.803 0 0 0 44.416 76.928l362.88 209.51a88.832 88.832 0 0 0 88.832 0l362.88-209.51a88.806 88.806 0 0 0 44.416-76.928v-418.995c0-31.744-16.947-61.081-44.416-76.953zM787.712 552.73L516.71 418.176 245.683 552.73c-15.257 7.628-14.31 26.726 0.947 33.408l250.496 109.747a46.618 46.618 0 0 0 39.117 0l250.01-108.775c15.77-7.68 15.77-26.752 1.459-34.38zM462.31 92.314L232.806 216.37c-14.31 6.682-21.939 19.098-21.939 32.435v249.55c0 15.257 18.611 23.858 32.922 16.23l229.504-124.058c12.877-6.682 20.992-19.098 20.992-32.435v-249.549c0.46-14.336-18.15-23.885-31.975-16.23z m109.261 0L801.075 216.37c12.877 6.682 20.992 19.098 20.992 32.435v249.55c0 15.257-18.611 23.858-32.921 16.23L559.18 390.528c-12.877-6.682-20.992-19.098-20.992-32.435v-249.549c0.46-14.336 19.072-23.885 33.382-16.23z"  horiz-adv-x="1024" />

    
    <glyph glyph-name="me" unicode="&#58942;" d="M0 384a512 512 0 1 1 1024 0A512 512 0 1 1 0 384zM195.507 102.707a16.435 16.435 0 0 0-13.081 5.709c-0.41 0.41-0.41 0.82-0.82 1.229-4.096 4.096-4.505 11.033-3.686 15.13 30.234 155.315 157.338 271.769 309.376 282.803h12.262c73.165 0 143.463-22.887 177.792-44.544 89.908-53.94 149.99-138.548 168.807-238.26a20.685 20.685 0 0 0-4.506-16.358 16.384 16.384 0 0 0-13.081-5.709H195.507z m0 0M512 402.586a161.536 161.536 0 0 0-161.434 161.433c0 89.088 72.346 161.434 161.434 161.434s161.434-72.346 161.434-161.434A161.536 161.536 0 0 0 512 402.586z m0 0"  horiz-adv-x="1024" />

    
    <glyph glyph-name="news" unicode="&#58945;" d="M376.115 24.426a149.543 137.315 90 1 1 274.63 0 149.543 137.315 90 1 1-274.63 0zM513.43 669.21a52.077 52.077 0 0 0-51.899 51.898V844.102A52.077 52.077 0 0 0 513.43 896a52.077 52.077 0 0 0 51.898-51.898v-122.994a52.077 52.077 0 0 0-51.898-51.898zM917.383-32.63H106.617a48.35 48.35 0 0 0-48.197 48.198c0 26.497 21.699 48.196 48.197 48.196h810.766c26.498 0 48.197-21.699 48.197-48.196a48.324 48.324 0 0 0-48.197-48.197zM510.724 803.589c269.243 0 321.013-246.217 321.013-294.592s0.894-288.108 0.894-288.108 1.123-107.984 100.478-161.107l-842.218-0.51s101.065 52.51 101.065 160.29V479.154M191.956 477.189s3.345 313.457 318.768 326.4c0 0 274.578 15.572 320.681-289.436l-278.688-218.06-360.76 181.096z"  horiz-adv-x="1024" />

    
    <glyph glyph-name="qq" unicode="&#58951;" d="M512 896C229.228 896 0 666.772 0 384c0-282.745 229.228-512 512-512s512 229.255 512 512C1024 666.772 794.772 896 512 896z m226.856-637.063s-16.208-44.22-45.945-83.94c0 0 53.127-18.056 48.64-64.984 0 0 1.779-52.346-113.462-48.735 0 0-81.07 6.32-105.377 40.61h-21.424c-24.306-34.304-105.35-40.61-105.35-40.61-115.281-3.61-113.476 48.735-113.476 48.735-4.5 46.928 48.627 64.983 48.627 64.983-29.71 39.72-45.918 83.941-45.918 83.941-72.058-116.44-64.85 16.25-64.85 16.25 13.528 78.524 70.239 129.967 70.239 129.967-8.111 71.316 21.612 83.94 21.612 83.94C318.41 709.714 508.025 705.86 512 705.753c3.988 0.107 193.576 3.96 199.828-216.644 0 0 29.71-12.638 21.612-83.94 0 0 56.738-51.443 70.238-129.968 0-0.013 7.195-132.702-64.822-16.263z m0 0"  horiz-adv-x="1024" />

    
    <glyph glyph-name="shenpi" unicode="&#58952;" d="M876.851-102.4h-738.38a57.78 57.78 0 0 0-57.6 57.6v5.197a57.78 57.78 0 0 0 57.6 57.6h738.406a57.78 57.78 0 0 0 57.6-57.6v-5.197a57.805 57.805 0 0 0-57.626-57.6z m33.792 155.187H105.856a92.237 92.237 0 0 0-91.955 91.955v2.714a92.237 92.237 0 0 0 91.955 91.955h804.787a92.237 92.237 0 0 0 91.955-91.955v-2.714a92.237 92.237 0 0 0-91.955-91.955zM992.691 103.091c0 111.54-117.888 134.451-117.888 134.451L689.05 239.13s-65.536 4.454-72.91 81.28c-4.94 51.61 62.849 87.347 62.849 87.347S309.786 499.968 448.512 878.54c0 0-165.3-33.741-202.522-202.522-24.396-110.643 21.914-191.206 56.704-233.6 14.336-17.459 31.872-29.517 51.866-42.752 18.278-12.109 45.184-35.123 46.029-79.385 1.177-61.952-53.325-81.69-81.69-81.69H142.822S22.63 218.88 22.63 106.138M446.771 878.054S291.226 535.244 677.94 407.117c0 0 181.709 135.987 63.386 349.184 0 0-98.33 163.302-294.554 121.753z"  horiz-adv-x="1024" />

    
    <glyph glyph-name="work" unicode="&#58955;" d="M389.018 394.086H119.014a67.072 67.072 0 0 0-67.072 67.072V731.162a67.072 67.072 0 0 0 67.072 67.072h269.978a67.072 67.072 0 0 0 67.072-67.072v-270.004a67.02 67.02 0 0 0-67.046-67.072z m0-480.23H119.014a67.072 67.072 0 0 0-67.072 67.072V250.906a67.072 67.072 0 0 0 67.072 67.072h270.004a67.072 67.072 0 0 0 67.072-67.072v-270.004a67.072 67.072 0 0 0-67.072-67.046z m480.23 0H599.27a67.072 67.072 0 0 0-67.072 67.072V250.906a67.072 67.072 0 0 0 67.072 67.072h270.004a67.072 67.072 0 0 0 67.072-67.072v-270.004a67.098 67.098 0 0 0-67.098-67.046zM686.822 357.811L495.898 548.736a67.072 67.072 0 0 0 0 94.848L686.822 834.509a67.072 67.072 0 0 0 94.848 0l190.925-190.925a67.072 67.072 0 0 0 0-94.848L781.67 357.811a67.072 67.072 0 0 0-94.848 0z"  horiz-adv-x="1024" />

    
    <glyph glyph-name="weixin" unicode="&#58956;" d="M515.86-97.298c-195.104-1.784-371.99 114.366-447.896 294.104C-7.94 376.543 32.151 584.323 169.48 722.919 306.804 861.516 514.208 903.52 694.639 829.273c180.426-74.248 298.201-250.056 298.21-445.165C994.047 119.463 780.5-96.057 515.86-97.298z m-95.72 722.11c-127.65 0-232.196-83.205-232.196-188.91 2.837-62.748 38.005-119.536 92.911-150.038l-23.23-66.838 81.156 38.956a414.17 414.17 0 0 1 81.36-11.115c7.258 0 14.52 0.321 21.66 0.843a159.46 159.46 0 0 0-7.14 46.578 186.74 186.74 0 0 0 62.224 128.845 186.764 186.764 0 0 0 135.153 46.986c7.48-0.037 14.953-0.478 22.382-1.323-20.095 89.297-120.108 155.813-234.28 155.813v0.203z m226.581-166.607c-110.444 0-197.455-72.209-197.455-161.272 0-89.058 87.011-161.189 197.455-161.189a303.094 303.094 0 0 1 69.684 11.115l63.702-33.378-17.451 55.562a167.367 167.367 0 0 1 81.318 127.89c0 88.66-92.87 160.868-197.253 160.868v0.404z m63.706-133.468a22.255 22.255 0 0 0-20.068 10.84 22.255 22.255 0 0 0 0 22.807 22.256 22.256 0 0 0 20.068 10.84 23.07 23.07 0 0 0 24.668-9.182 23.064 23.064 0 0 0 0-26.325 23.07 23.07 0 0 0-24.668-9.182v0.202z m-127.734 0a22.264 22.264 0 0 0-20.067 10.84 22.253 22.253 0 0 0 0 22.807 22.264 22.264 0 0 0 20.067 10.84 23.067 23.067 0 0 0 24.668-9.182 23.062 23.062 0 0 0 0-26.325 23.068 23.068 0 0 0-24.668-9.182v0.202z m-75.501 150.115a28.493 28.493 0 0 0-29.971 11.662 28.49 28.49 0 0 0 0 32.16 28.492 28.492 0 0 0 29.97 11.661c15.377 0 27.842-12.464 27.842-27.84 0-15.38-12.465-27.845-27.841-27.845v0.202z m-162.511 0a28.489 28.489 0 0 0-29.971 11.662 28.487 28.487 0 0 0 0 32.16 28.487 28.487 0 0 0 29.971 11.661c15.375 0 27.84-12.464 27.84-27.84 0-15.38-12.464-27.845-27.84-27.845v0.202z m0 0"  horiz-adv-x="1024" />

    
    <glyph glyph-name="industry" unicode="&#58950;" d="M898.844 679.822H688.356v39.822c0 62.578-51.2 119.467-119.467 119.467H449.422c-68.266 0-119.466-51.2-119.466-119.467v-39.822h-210.49C51.2 679.822 0 628.6220000000001 0 560.356v-517.69C0-19.909999999999968 51.2-76.79999999999995 119.467-76.79999999999995h785.066C972.8-76.79999999999995 1024-25.600000000000023 1024 42.66700000000003V560.356c-5.689 68.266-62.578 119.466-125.156 119.466z m-494.933 39.822c0 22.756 17.067 39.823 39.822 39.823H563.2c22.756 0 39.822-17.067 39.822-39.823v-39.822h-199.11v39.822z m534.756-671.288c0-22.756-17.067-39.823-39.823-39.823H113.778c-22.756 0-39.822 17.067-39.822 39.823V378.30999999999995H204.8v-108.089h79.644v108.09H466.49v-290.134h79.644V378.30999999999995h182.045v-108.089h79.644v108.09h130.845v-329.956z m-864.711 409.6v102.4c0 22.755 17.066 39.822 39.822 39.822h785.066c22.756 0 39.823-17.067 39.823-39.822v-102.4H73.956z"  horiz-adv-x="1024" />

    
    <glyph glyph-name="enterprise" unicode="&#58962;" d="M986.966 471.096L694.53 802.756c-6.343 7.25-14.24 11.134-23.043 11.134-8.803 0-17.217-3.884-23.043-11.133l-42.72-48.675-30.939-34.953c-1.942-2.2-3.884-3.883-5.437-6.084l-4.401-5.049c-22.525 26.02-45.568 52.04-73.142 82.462l-9.32 10.486c-22.525 25.503-46.086 51.523-68.611 78.06-5.825 7.25-14.758 11.134-24.078 10.487-9.321 0-18.124-4.402-24.079-11.651L34.315 471.096c-8.802-10.486-11.262-26.538-5.825-39.872s17.217-22.137 29.904-22.137h79.484c6.344 0 11.263-5.566 11.263-12.686l0.518-325.059c0.518-84.145 61.36-152.367 135.408-152.367h620.99v2.719h2.46v70.293H284.938c-38.318 0-70.164 35.47-70.164 78.708l-0.518 325.059c0 47.639-34.305 85.828-76.507 85.828h-4.92L390.832 798.355c17.218-19.418 34.305-38.707 54.889-61.49l3.883-4.402 68.61-77.543c-2.459-2.718-4.918-5.566-7.896-8.285l-1.942-2.2c-12.816-12.687-25.502-26.538-36.765-43.238-22.007-33.27-27.444-76.378-13.722-113.013 10.745-28.739 31.458-50.358 57.866-61.49 29.904-12.17 65.245-9.45 94.243 7.766 34.823 20.454 55.406 63.174 52.946 111.33-2.46 48.675-27.962 84.146-50.487 109.648l8.803 9.968 42.72 48.157 8.285 9.45L886.64 479.899c-41.166-4.92-72.623-44.273-72.623-91.912v-211.01c0-16.052-11.263-28.739-25.503-28.739h-218.13v-73.66h216.318c50.099 0 91.265 45.957 91.265 103.046v210.88c0 9.968 7.379 18.253 16.182 18.253h69.128c13.204 0 24.985 8.803 30.422 22.655 5.437 15.016 2.589 31.069-6.732 41.684z m-468.493 42.202c-4.79 11.65-2.59 26.538 5.825 38.189 8.544 11.133 20.713 22.266 31.328 31.845 4.272 3.755 9.58 8.544 14.37 13.205 16.44-16.441 33.398-36.118 34.434-58.902 0.518-6.86 0-29.645-19.03-39.742-14.37-7.379-31.328-8.544-45.05-3.754-10.744 2.718-18.123 9.58-21.877 19.159z m0 0"  horiz-adv-x="1024" />

    
    <glyph glyph-name="cloves" unicode="&#58931;" d="M957.9008 455.68c-20.48 120.6272-67.84 230.4-138.24 330.9056-27.8016 39.7312-61.44 70.144-113.152 75.264-24.1152 2.3552-47.5648 11.264-71.68 14.1824-17.4592 2.0992-37.4784 4.0448-52.992-2.304-42.9568-17.5104-78.848-46.8992-111.616-80.128a672 672 0 0 1-105.3696-139.264C331.3664 595.8656 297.5232 537.6 263.936 479.1808c-32.1536-56.32-64.6656-111.9232-96.0512-168.448-17.8688-32.256-45.312-103.2704-64.6144-141.3632l-2.7136-2.1504a17.664 17.664 0 0 1-4.864-8.0384c-12.1344-36.9152-12.1344-73.472 6.0928-108.288A36.608 36.608 0 0 1 117.76 35.84c6.912-7.3728 15.36-31.0272 27.904-40.1408a329.2672 329.2672 0 0 1 121.6-60.5696 1222.2976 1222.2976 0 0 1 147.456-30.0544c107.52-14.848 213.504-6.0416 314.2656 37.7344C794.9824-28.416 849.92 15.36 888.9856 76.8c74.1376 116.6336 91.4432 244.736 68.9152 378.88zM963.6352 456.6528c-19.7632 117.76-66.56 229.7856-138.9568 333.312-34.3552 49.1008-70.5024 73.0624-117.3504 77.7216A265.6256 265.6256 0 0 0 670.72 874.8032a305.7664 305.7664 0 0 1-35.072 7.0144c-19.2512 2.3552-39.424 4.0448-55.8592-2.6624-38.0928-15.36-74.24-41.3696-113.8176-81.408a681.5744 681.5744 0 0 1-106.1376-140.4928Q332.8 609.6896 305.152 562.3296q-23.1936-40.192-46.08-80.2816L237.7728 445.44c-24.832-43.0592-50.432-87.552-74.9568-131.7376-9.8816-17.7664-22.6816-47.3088-35.0208-75.9296-10.24-23.9616-21.0432-48.64-29.8496-65.9456l-0.5632-0.4096a22.4256 22.4256 0 0 1-6.5536-10.24c-13.4144-40.96-11.2128-78.4896 6.4512-112.2816a41.472 41.472 0 0 1 16.8448-16.3328l-0.4096-0.3584a82.6368 82.6368 0 0 0 7.9872-12.7488c5.632-10.24 12.0832-21.76 20.48-27.9552a333.3632 333.3632 0 0 1 123.5456-61.44 1219.9936 1219.9936 0 0 1 147.9168-30.208A700.416 700.416 0 0 1 509.5936-107.52a546.7136 546.7136 0 0 1 221.4912 45.0048c70.0416 30.4128 124.7744 76.1856 162.816 136.0384 70.3488 110.7968 93.8496 239.7696 69.7344 383.1296zM106.3424 53.248c-16.5888 31.6416-18.4832 65.792-5.7856 104.2944a13.056 13.056 0 0 0 3.1744 5.6832l2.9696 2.304 0.9216-0.512 0.9728 1.9968C150.9376 199.68 189.44 220.16 237.9264 213.76c14.9504-1.8944 34.3552-9.0624 41.984-32.256 2.1504-6.4512 4.5056-12.9536 6.8096-19.4048a242.0736 242.0736 0 0 0 15.36-55.9616c3.2256-32.256-6.3488-72.2432-70.4-79.4112-5.9392-0.6656-12.1344-0.8704-18.0736-1.0752q-4.3008 0-8.6016-0.3072h-7.0144a55.552 55.552 0 0 0-7.936 0.9728l-17.8688 3.1744c-16.3328 2.816-30.464 5.12-48.7936 9.7792a30.4128 30.4128 0 0 0-17.0496 13.9776z m777.728 26.5216c-36.7616-57.856-89.7536-102.4-157.5936-131.6352-94.3616-40.96-196.1472-53.1968-311.1936-37.2736a1206.0672 1206.0672 0 0 0-146.4832 29.9008 322.56 322.56 0 0 0-119.5008 59.5456c-6.6048 4.864-12.5952 15.6672-17.4592 24.3712l-1.4336 2.56c14.4384-3.2256 26.9312-5.4272 39.9872-7.68 5.632-1.024 11.52-1.9968 17.7664-3.1744a76.3904 76.3904 0 0 1 9.3184-1.1264h6.0928a12.7488 12.7488 0 0 1 2.5088 0l7.7824 0.3072c6.1952 0 12.5952 0.3584 18.8928 1.0752C288.4096 22.784 317.44 55.808 312.32 107.1616a248.2176 248.2176 0 0 1-15.872 58.4192c-2.304 6.3488-4.608 12.7488-6.7072 19.0976-7.3728 22.4256-24.7808 35.84-50.3808 39.2704-47.3088 6.0416-86.3232-12.544-121.1904-37.1712 6.5536 14.2336 13.5168 30.4128 20.48 46.08 12.288 28.3136 24.9344 57.6512 34.5088 74.9056 24.5248 44.0832 50.1248 88.576 74.8544 131.584l20.992 36.8128q23.04 40.192 46.08 80.2304Q342.5792 604.16 369.92 651.4688a671.5392 671.5392 0 0 0 104.448 138.24c38.4 38.7584 73.472 63.7952 109.8752 78.6944 13.8752 5.632 32.3584 4.0448 50.1248 1.8944a306.688 306.688 0 0 0 33.6896-6.8096c8.8064-2.1504 17.8688-4.3008 27.0336-5.8368C658.0736 655.36 579.9936 481.28 452.0448 335.5648a48.64 48.64 0 0 1 13.8752 8.2944 92.8768 92.8768 0 0 1 10.24 10.24c66.9696 75.5712 124.9792 158.72 168.1408 253.6448 30.72 67.9936 57.856 137.8304 62.72 215.3472 0.7168 10.9056 1.536 22.0672-3.7888 33.3824l2.6624-0.3072c43.1104-4.3008 76.8-26.7264 108.9536-72.8064 71.7312-102.4 117.8112-212.6848 137.472-328.6016 23.4496-140.4928 0.5632-266.6496-68.2496-374.9888z"  horiz-adv-x="1024" />

    
    <glyph glyph-name="signing" unicode="&#58935;" d="M507.905553-104.704009H148.935507c-72.076385 0-130.528144 57.745821-130.528144 128.975079V766.00131C18.407363 837.265865 76.859122 895.011685 148.970804 895.011685h554.762263c72.076385 0 130.528144-57.745821 130.528144-129.010375v-257.985454a32.4732 32.4732 0 0 0-32.896763-31.979042 32.4732 32.4732 0 0 0-32.367309 31.979042v258.020751c0 35.579332-29.22588 64.487539-65.299369 64.487539H149.006101c-36.073489 0-65.299369-28.908207-65.299369-64.522836v-741.73024c0-35.614629 29.22588-64.487539 65.299369-64.48754h358.970046c18.001448-0.105891 32.543794-14.61294 32.437903-32.437902a32.4732 32.4732 0 0 0-32.4732-32.049637zM794.375651 332.589983l144.046878-75.711971-30.708352-56.933991-144.011581 75.711972 30.708352 56.93399zM673.377684-127.611733c-11.400917 0-22.590052 2.78846-32.649684 8.047706a67.205405 67.205405 0 0 0-35.897005 67.770156c11.753886 91.560305 16.342491 121.562718 19.589811 133.775464l3.24732 9.388991 168.401779 313.119299a65.652339 65.652339 0 0 0 88.454172 26.755093l86.477543-45.46248a64.099273 64.099273 0 0 0 26.402123-87.395264l-168.719451-313.119299c-3.24732-6.14167-7.482955-13.871704-112.597291-96.748957a65.722933 65.722933 0 0 0-42.709317-16.130709z m13.695219 191.874254c-2.611975-12.883389-10.765572-71.582227-17.295508-123.821723a2.576678 2.576678 0 0 1 1.62366-2.89435c1.129503-0.988315 2.823757-0.988315 3.917962 0 40.485609 32.226121 87.465858 70.27624 97.913757 80.935921l166.742821 309.907276-86.124573 45.780153-166.778119-309.907277zM246.849264 669.252353h358.970046c21.742925 0 32.649685-10.730275 32.649685-32.226122 0-21.531143-10.90676-32.261418-32.649685-32.261418H246.849264c-21.742925 0-32.614388 10.730275-32.614388 32.261418 0 21.495846 10.871463 32.226121 32.614388 32.226122z m0-209.593327h358.970046c21.742925 0 32.649685-10.765572 32.649685-32.261418 0-21.531143-10.90676-32.261418-32.649685-32.261418H246.849264c-21.742925 0-32.614388 10.765572-32.614388 32.261418s10.871463 32.226121 32.614388 32.226121z m0-209.663921h358.970046c21.742925 0 32.649685-10.730275 32.649685-32.226121s-10.90676-32.226121-32.649685-32.226121H246.849264c-21.742925 0-32.614388 10.730275-32.614388 32.226121 0 21.531143 10.871463 32.261418 32.614388 32.261418z"  horiz-adv-x="1024" />

    
    <glyph glyph-name="information" unicode="&#58939;" d="M512-128C230.4-128 0 102.4 0 384S230.4 896 512 896s512-230.4 512-512-230.4-512-512-512z m0 938.658909C277.341091 810.658909 85.341091 618.658909 85.341091 384c0-234.658909 192-426.658909 426.658909-426.658909 234.658909 0 426.658909 192 426.658909 426.658909 0 234.658909-192 426.658909-426.658909 426.658909z m0-512c-25.6 0-42.658909 17.082182-42.658909 42.682182V640c0 25.6 17.058909 42.658909 42.658909 42.658909S554.658909 665.6 554.658909 640v-298.658909c0-21.341091-17.058909-42.682182-42.658909-42.682182z m0-81.058909c25.6 0 46.941091-21.341091 46.941091-46.941091 0-25.6-21.341091-46.917818-46.941091-46.917818-25.6 0-46.941091 21.317818-46.941091 46.917818S486.4 217.6 512 217.6z"  horiz-adv-x="1024" />

    
    <glyph glyph-name="contact" unicode="&#58946;" d="M824.888889 892.444444H277.333333C169.784889 892.444444 81.777778 804.437333 81.777778 696.888889v-117.333333H42.666667c-21.504 0-39.111111-17.607111-39.111111-39.111112s17.607111-39.111111 39.111111-39.111111h39.111111v-234.666666H42.666667c-21.504 0-39.111111-17.607111-39.111111-39.111111s17.607111-39.111111 39.111111-39.111112h39.111111V71.111111c0-107.548444 88.007111-195.555556 195.555555-195.555555H824.888889c107.548444 0 195.555556 88.007111 195.555555 195.555555V696.888889c0 107.548444-88.007111 195.555556-195.555555 195.555555zM942.222222 71.111111A117.674667 117.674667 0 0 0 824.888889-46.222222H277.333333A117.674667 117.674667 0 0 0 160 71.111111v117.333333H199.111111c21.504 0 39.111111 17.607111 39.111111 39.111112S220.615111 266.666667 199.111111 266.666667H160v234.666666H199.111111c21.504 0 39.111111 17.607111 39.111111 39.111111S220.615111 579.555556 199.111111 579.555556H160V696.888889A117.674667 117.674667 0 0 0 277.333333 814.222222H824.888889A117.674667 117.674667 0 0 0 942.222222 696.888889v-625.777778zM691.911111 442.652444c21.504 27.392 35.214222 60.643556 35.214222 97.792 0 86.044444-70.4 156.444444-156.444444 156.444445s-156.444444-70.4-156.444445-156.444445c0-37.148444 13.653333-70.4 35.185778-97.792-89.941333-39.111111-152.519111-138.808889-152.519111-254.208A117.674667 117.674667 0 0 1 414.236444 71.111111h312.888889a117.674667 117.674667 0 0 1 117.333334 117.333333c0 115.370667-62.577778 215.096889-152.547556 254.208zM570.680889 618.666667a78.449778 78.449778 0 0 0 78.222222-78.222223 78.449778 78.449778 0 0 0-78.222222-78.222222 78.449778 78.449778 0 0 0-78.222222 78.222222 78.449778 78.449778 0 0 0 78.222222 78.222223z m156.444444-469.333334h-312.888889a39.224889 39.224889 0 0 0-39.111111 39.111111c0 107.548444 72.334222 195.555556 160.341334 195.555556h68.437333c88.007111 0 160.369778-88.007111 160.369778-195.555556 1.962667-21.504-15.644444-39.111111-37.148445-39.111111z"  horiz-adv-x="1024" />

    
    <glyph glyph-name="time" unicode="&#58949;" d="M511.2576 807.1424a421.0432 421.0432 0 0 0 298.6752-123.7248 421.0688 421.0688 0 0 0 123.7248-298.6752 421.0432 421.0432 0 0 0-123.7248-298.6752 421.0688 421.0688 0 0 0-298.6752-123.7248 421.0432 421.0432 0 0 0-298.6752 123.7248 421.0688 421.0688 0 0 0-123.7248 298.6752A421.0432 421.0432 0 0 0 212.5824 683.4176a421.0688 421.0688 0 0 0 298.6752 123.7248z m0 70.4C239.104 877.5424 18.4576 656.896 18.4576 384.7424c0-272.1792 220.6464-492.8 492.8-492.8 272.1792 0 492.8 220.6208 492.8 492.8 0 272.1536-220.6208 492.8-492.8 492.8zM721.92 349.5424h-210.6624c-19.4304 0-35.2 15.744-35.2 35.2V700.1344a35.2 35.2 0 0 0 70.4 0v-280.192h175.488a35.2 35.2 0 0 0 0-70.4z"  horiz-adv-x="1024" />

    
    <glyph glyph-name="message" unicode="&#58940;" d="M207.286857 437.394286a64.219429 64.219429 0 0 1 128.468114 0 64.219429 64.219429 0 0 1-128.438857 0c0-35.488914 0 0 0 0zM461.180343 437.394286a64.219429 64.219429 0 0 1 128.438857 0 64.219429 64.219429 0 0 1-128.438857 0c0-35.488914 0 0 0 0zM715.044571 437.394286a64.219429 64.219429 0 1 1 128.468115 0 64.219429 64.219429 0 0 1-128.438857 0zM1003.7248 617.413486c-26.389943 54.623086-63.926857 103.745829-111.850057 145.700571C794.389943 848.720457 665.161143 895.707429 528.003657 895.707429c-137.303771 0-266.532571-47.133257-363.871086-132.593372-47.9232-41.954743-85.430857-90.9312-111.850057-145.700571a412.028343 412.028343 0 0 1-41.340343-180.048457c0-73.230629 19.982629-145.993143 57.665829-210.680686 32.943543-56.466286 79.637943-106.964114 135.636114-146.929372v-151.815314a36.717714 36.717714 0 0 1 36.629943-36.600686c6.231771 0 12.639086 1.667657 18.285714 4.856686l160.680229 92.7744c35.401143-6.729143 71.855543-10.064457 108.163657-10.064457 137.303771 0 266.532571 47.133257 363.871086 132.593371 47.9232 41.954743 85.430857 90.9312 111.850057 145.700572a412.028343 412.028343 0 0 1 41.340343 180.0192 410.0096 410.0096 0 0 1-41.340343 180.194743z m-475.721143-565.248c-35.986286 0-72.001829 3.803429-106.788571 11.264a36.600686 36.600686 0 0 1-25.951086-4.096l-117.789257-68.081372v107.7248c0 12.346514-6.261029 23.815314-16.471772 30.661486-112.4352 73.698743-177.005714 185.841371-177.005714 307.726629 0 212.406857 199.124114 385.111771 444.0064 385.111771 244.706743 0 443.977143-172.704914 443.977143-385.111771 0-212.3776-199.241143-385.2288-443.977143-385.2288z"  horiz-adv-x="1053" />

    
    <glyph glyph-name="all" unicode="&#58974;" d="M112.996174 783.003826v-301.412174h301.412174v301.412174h-301.412174z m0 75.330783h301.412174c41.583304 0 75.330783-33.747478 75.330782-75.330783v-301.412174C489.73913 440.008348 455.991652 406.26087 414.408348 406.26087h-301.412174A75.330783 75.330783 0 0 0 37.665391 481.591652v301.412174c0 41.583304 33.747478 75.330783 75.330783 75.330783z m0-602.779826v-301.367653h301.412174v301.412174h-301.412174z m0 75.375304h301.412174c41.583304 0 75.330783-33.747478 75.330782-75.375304v-301.367653c0-41.627826-33.747478-75.330783-75.330782-75.330782h-301.412174a75.330783 75.330783 0 0 0-75.330783 75.330782v301.412174c0 41.583304 33.747478 75.330783 75.330783 75.330783zM791.151304 783.003826a150.706087 150.706087 0 0 1 0-301.412174 150.706087 150.706087 0 0 1 0 301.412174z m0 75.330783a226.03687 226.03687 0 0 0 0-452.073739 226.03687 226.03687 0 0 0 0 452.073739z m-150.661565-602.779826v-301.367653h301.367652v301.412174h-301.412174z m0 75.375304h301.367652c41.627826 0 75.330783-33.747478 75.330783-75.375304v-301.367653c0-41.583304-33.702957-75.330783-75.330783-75.330782h-301.412174a75.330783 75.330783 0 0 0-75.330782 75.330782v301.412174c0 41.583304 33.747478 75.330783 75.375304 75.330783z"  horiz-adv-x="1024" />

    
    <glyph glyph-name="swjb" unicode="&#58985;" d="M823.6032 637.0304a135.936 135.936 0 0 1-88.3712 56.32l-221.952 39.168-3.8912 27.6992a136.96 136.96 0 0 1-154.624 116.48L151.3984 848.0768a136.8064 136.8064 0 0 1-116.5312-154.624l71.68-508.3648a136.8064 136.8064 0 0 1 137.2672-117.76v-5.5808c0-3.1232 0-6.1952 0.3072-9.2672a133.12 133.12 0 0 1 1.8944-15.7184c0.5632-3.072 1.0752-6.0928 1.8432-9.1136a125.7984 125.7984 0 0 1 5.12-15.9232c0.9728-2.5088 1.7408-5.12 2.8672-7.5264a138.24 138.24 0 0 1 12.3392-21.8624 135.7824 135.7824 0 0 1 88.3712-56.32h0.4608l235.52-41.5232a136.8576 136.8576 0 0 1 158.72 111.0016l95.0272 539.2384a135.7312 135.7312 0 0 1-22.6816 102.2976zM200.704 149.45280000000002A67.8912 67.8912 0 0 0 174.08 194.55999999999995L102.4 702.9248A68.4032 68.4032 0 0 0 160.9216 780.288L364.288 808.96a68.4544 68.4544 0 0 0 77.312-58.2656l2.4576-17.4592a137.1136 137.1136 0 0 1-103.3728-109.3632l-85.8624-487.0656-3.3792-0.4608a68.1984 68.1984 0 0 0-50.7392 13.1072z m483.072-142.1312a68.4544 68.4544 0 0 0-79.3088-55.552L368.64-6.604799999999955a68.4032 68.4032 0 0 0-55.552 79.2576L408.1152 611.9936A68.2496 68.2496 0 0 0 487.424 667.4944l235.9296-41.5744a68.4032 68.4032 0 0 0 55.5008-79.3088z"  horiz-adv-x="1024" />

    
    <glyph glyph-name="case" unicode="&#58989;" d="M846.9504 225.28V689.5616a36.6592 36.6592 0 0 1-36.6592 36.6592h-12.1856v-488.7552h12.1856a60.6208 60.6208 0 0 0 36.6592-12.1856zM669.2864 50.9952h27.5456v-24.4736h-27.5456zM377.6512 38.8096l20.5824-12.288h243.6096v24.4736H398.2336l-20.5824-12.1856zM512 896a512 512 0 1 1 512-512A512 512 0 0 1 512 896z m212.3776-881.664a11.3664 11.3664 0 0 0-3.9936-8.6016 14.6432 14.6432 0 0 0-9.728-3.584H394.1376a15.0528 15.0528 0 0 0-7.5776 2.048l-40.96 24.4736a11.9808 11.9808 0 0 0-6.144 10.24 12.0832 12.0832 0 0 0 6.144 10.24l40.96 24.3712a16.1792 16.1792 0 0 0 7.5776 2.1504H710.656a15.1552 15.1552 0 0 0 9.728-3.584 11.776 11.776 0 0 0 3.9936-8.704z m146.944 162.0992a61.44 61.44 0 0 0-61.44-61.44H150.528A12.1856 12.1856 0 0 0 138.3424 128V640.7168a12.288 12.288 0 0 0 12.1856 12.1856h623.104v85.504a12.1856 12.1856 0 0 0 3.584 8.6016 11.8784 11.8784 0 0 0 8.6016 3.584h24.4736a61.44 61.44 0 0 0 61.44-61.44zM842.0352 194.7648a36.5568 36.5568 0 0 1-31.744 18.3296h-24.4736a12.1856 12.1856 0 0 0-12.1856 12.1856V628.4288H162.816v-488.6528h647.4752a36.6592 36.6592 0 0 1 31.744 54.9888z m-262.0416 337.92a43.52 43.52 0 0 0 43.52-43.52V336.896a7.68 7.68 0 1 0-15.36 0V489.472a28.16 28.16 0 0 1-28.16 27.648 7.68 7.68 0 0 0 0 15.36z m-171.8272 32.8704h96.8704v-12.6976h-41.6768v-19.1488h33.5872v-12.6976h-80.6912v12.6976h33.5872v19.1488h-41.6768z m-8.0896-104.5504h147.968a10.24 10.24 0 0 0 0-21.4016H400.0768a10.24 10.24 0 0 0 0 21.4016z m-10.24-67.3792a10.752 10.752 0 0 0 10.24 10.752h147.968a10.752 10.752 0 0 0 10.24-10.752 10.24 10.24 0 0 0-10.24-10.24H400.0768a10.24 10.24 0 0 0-10.24 10.24z m10.24-45.9776h147.968a10.24 10.24 0 0 0 0-21.4016H400.0768a10.24 10.24 0 0 0 0 21.4016z m84.1728-114.0736H357.376a43.52 43.52 0 0 0-43.52 43.52V489.472a43.52 43.52 0 0 0 43.52 43.52 7.68 7.68 0 0 0 0-15.36 28.16 28.16 0 0 1-28.16-28.16v-212.3776a28.16 28.16 0 0 1 28.16-28.16h126.8736a7.68 7.68 0 0 0 0-15.36zM696.32 365.4656l-74.4448-135.7824a10.24 10.24 0 0 0-2.048-2.56 15.1552 15.1552 0 0 0-2.1504-1.3312h-0.9216a8.2944 8.2944 0 0 0-3.1744-0.6144 9.6256 9.6256 0 0 0-3.6864 0.8192H608.6656a10.9568 10.9568 0 0 0-1.6384 1.4336s-0.8192 0-1.1264 0.8192L548.6592 291.84a10.24 10.24 0 0 0 15.36 13.6192l46.8992-52.9408 67.7888 122.88a10.24 10.24 0 0 0 18.0224-10.24z"  horiz-adv-x="1024" />

    
    <glyph glyph-name="cpwt" unicode="&#58990;" d="M680.2432 294.4h-95.1296A13.4144 13.4144 0 0 1 571.904 281.6v-90.8288a5.632 5.632 0 0 1 3.2768-5.12 4.4032 4.4032 0 0 1 5.4272 1.2288l101.0688 103.7312a3.1744 3.1744 0 0 1 0.6144 2.7648 2.1504 2.1504 0 0 1-2.048 1.024zM512 896a512 512 0 1 1 512-512A512 512 0 0 1 512 896z m37.5808-294.7072a12.0832 12.0832 0 1 0 24.064 0v-23.8592a12.0832 12.0832 0 1 0-24.064 0z m81.408-127.8976a12.0832 12.0832 0 0 0 0-24.1664H393.5232a12.0832 12.0832 0 0 0 0 24.1664z m-179.2 127.8976a12.0832 12.0832 0 0 0 24.1664 0v-23.8592a12.0832 12.0832 0 0 0-24.1664 0zM197.2224 697.344h189.0304v-31.4368H228.7616v-157.5936h-31.5392z m189.0304-630.0672H197.2224V256.3072h31.5392v-157.4912h157.4912z m105.984 93.4912H382.976a63.6928 63.6928 0 0 0-65.1264 61.44v317.44a63.6928 63.6928 0 0 0 65.1264 61.44h17.8176a12.0832 12.0832 0 1 0 0-24.1664H382.976a39.424 39.424 0 0 1-40.96-37.6832v-317.44a39.424 39.424 0 0 1 40.96-37.6832h109.2608a12.0832 12.0832 0 0 0 0-24.1664z m-98.7136 214.528a12.0832 12.0832 0 0 0 0 24.1664h237.4656a12.0832 12.0832 0 0 0 0-24.1664zM577.024 160.768a24.9856 24.9856 0 0 0-10.24 2.1504 29.2864 29.2864 0 0 0-18.7392 27.4432V281.6a37.5808 37.5808 0 0 0 37.376 37.376h81.92A14.848 14.848 0 0 1 682.2912 332.8V540.0576a39.5264 39.5264 0 0 1-40.96 37.6832h-15.1552a12.0832 12.0832 0 0 0 0 24.1664h15.0528a63.6928 63.6928 0 0 0 65.2288-61.44V291.84a26.8288 26.8288 0 0 0-7.5776-18.6368l-100.7616-103.424a30.72 30.72 0 0 0-21.0944-9.0112z m250.368-93.4912H638.3616v31.5392h157.4912V256.3072h31.5392z m0 441.0368h-31.5392V665.9072H638.3616V697.344H827.392z"  horiz-adv-x="1024" />

    
    <glyph glyph-name="cpbj" unicode="&#58991;" d="M484.87424 313.2416l7.5264 7.5264 62.26944-62.27968-7.5264-7.5264zM618.35264 446.65856l9.2672 9.2672 62.26944-62.26944-9.2672-9.2672zM501.2992 323.60448l114.11456 114.11456 57.63072-57.63072-114.11456-114.11456zM600.77056 299.43808l32.72704 32.73728 211.79392-211.79392-32.72704-32.72704zM512 896a512 512 0 1 1 512-512A512 512 0 0 1 512 896z m215.04-871.1168H253.7472a66.8672 66.8672 0 0 0-66.7648 66.7648V680.0384a66.9696 66.9696 0 0 0 66.7648 66.8672h66.8672a13.4144 13.4144 0 1 0 0-26.8288h-66.8672a40.1408 40.1408 0 0 1-40.1408-40.1408v-92.16L368.64 742.4a12.8 12.8 0 0 0 8.4992 3.9936H761.856a66.9696 66.9696 0 0 0 66.7648-66.8672v-365.4656a13.4144 13.4144 0 1 0-26.7264 0V679.936a40.1408 40.1408 0 0 1-40.1408 40.1408H384L213.6064 550.4v-458.752a40.0384 40.0384 0 0 1 40.1408-40.1408H727.04a13.5168 13.5168 0 0 0 13.4144-13.4144A13.312 13.312 0 0 0 727.04 24.8832zM450.56 297.1648H332.1856c-2.1504 0-3.8912 6.0416-3.8912 13.4144s1.7408 13.4144 3.8912 13.4144H450.56c2.1504 0 3.8912-6.0416 3.8912-13.4144s-2.2528-13.4144-3.8912-13.4144z m162.6112-102.4c5.0176 0 9.216-6.0416 9.216-13.4144s-4.096-13.4144-9.216-13.4144H337.92c-5.0176 0-9.1136 6.0416-9.1136 13.4144s4.096 13.4144 9.1136 13.4144zM334.7456 452.608c-3.4816 0-6.4512 6.0416-6.4512 13.4144s2.8672 13.4144 6.4512 13.4144h196.3008c3.584 0 6.5536-6.0416 6.5536-13.4144s-2.8672-13.4144-6.5536-13.4144zM337.92 582.3488c-5.0176 0-9.1136 6.0416-9.1136 13.4144S332.3904 609.28 337.92 609.28h274.7392c5.0176 0 9.216-6.0416 9.216-13.4144s-4.096-13.4144-9.216-13.4144z m475.7504-507.4944L594.944 293.5808 563.2 261.12l3.2768-3.2768L549.1712 240.64l-74.1376 74.0352 17.2032 17.1008 4.096-4.096 116.3264 116.736-4.096 4.1984L625.664 465.92l74.0352-74.1376-17.1008-17.1008-3.3792 3.2768-39.424-39.424 218.7264-218.8288z"  horiz-adv-x="1024" />

    
    <glyph glyph-name="sbal" unicode="&#58994;" d="M196.096 248.2176a14.9504 14.9504 0 0 0-6.7584 1.6384h-21.2992v-59.392h237.3632a12.1856 12.1856 0 0 0 4.3008 0h443.0848v59.392H202.752a14.848 14.848 0 0 0-6.656-1.6384zM512 896a512 512 0 1 1 512-512A512 512 0 0 1 512 896z m355.6352-733.5936H648.6016l92.16-113.8688a15.0528 15.0528 0 0 0-1.6384-19.7632 23.6544 23.6544 0 0 0-10.24-3.2768 15.2576 15.2576 0 0 0-11.5712 4.9152L612.4544 162.4064H414.9248l-103.424-131.9936a17.7152 17.7152 0 0 0-11.4688-4.8128 12.5952 12.5952 0 0 0-8.2944 3.2768 13.5168 13.5168 0 0 0-1.6384 19.7632L378.88 162.4064H154.8288a14.7456 14.7456 0 0 0-14.848 14.848v87.4496a14.7456 14.7456 0 0 0 14.848 14.848h26.3168V698.6752a14.848 14.848 0 0 0 14.9504 14.848h300.2368v31.3344a14.848 14.848 0 1 0 29.696 0v-31.3344h292.0448a14.7456 14.7456 0 0 0 14.848-14.848V279.552h36.352a14.7456 14.7456 0 0 0 14.848-14.848v-87.4496a17.6128 17.6128 0 0 0-16.4864-14.848zM643.9936 515.2768a34.304 34.304 0 0 1-34.5088 34.5088h-174.08v-215.04h174.08A34.304 34.304 0 0 1 645.12 369.2544h-0.6144z m-92.16-23.9616l-3.9936-78.9504h-11.3664l-3.3792 78.9504zM550.4 384a11.264 11.264 0 0 0-19.2512 7.9872 11.1616 11.1616 0 0 0 3.2768 7.9872 11.3664 11.3664 0 0 0 15.9744 0 11.1616 11.1616 0 0 0 3.2768-7.9872 11.3664 11.3664 0 0 0-3.2768-7.9872zM210.944 683.8272V279.552h592.2816V683.8272z m154.3168-295.5264a3.8912 3.8912 0 0 0-3.8912-3.8912h-18.5344a3.8912 3.8912 0 0 0-3.8912 3.8912v250.88a3.7888 3.7888 0 0 0 3.8912 3.7888h237.568a3.7888 3.7888 0 0 0 3.8912-3.7888v-17.92a3.8912 3.8912 0 0 0-3.8912-3.8912h-215.04z m40.96-40.96a3.8912 3.8912 0 0 0-3.8912-3.8912h-18.5344a3.8912 3.8912 0 0 0-3.8912 3.8912v250.88a3.7888 3.7888 0 0 0 3.8912 3.7888h237.568a3.7888 3.7888 0 0 0 3.8912-3.7888v-17.92a3.8912 3.8912 0 0 0-3.8912-3.8912h-215.04z m257.024 22.528a53.248 53.248 0 0 0-53.1456-53.0432h-192.512V568.32h192.512a53.1456 53.1456 0 0 0 53.1456-52.4288z"  horiz-adv-x="1024" />

    
    <glyph glyph-name="xszz" unicode="&#58997;" d="M482.2016 355.84a8.704 8.704 0 0 0-0.6144 1.9456c-0.6144 1.9456-1.1264 3.1744-1.3312 3.8912a55.1936 55.1936 0 0 0-1.6384-6.144s-3.072-8.4992-8.3968-24.064h20.48c-5.3248 15.5648-8.2944 23.6544-8.4992 24.3712zM345.088 254.7712h333.9264V427.008H345.088z m236.3392 118.272h51.8144v-11.776h-37.5808v-15.7696h35.328v-11.776h-35.328v-17.5104H634.88v-10.9568h-53.4528z m-59.392 0h13.9264v-57.1392h35.328v-10.24H522.24z m-49.9712 0h16.896l26.0096-67.7888h-15.5648l-5.5296 15.5648H466.944l-5.5296-15.5648h-15.2576zM417.9968 332.8l-3.2768 1.024c-3.8912 1.2288-6.7584 2.1504-8.704 2.56-13.0048 2.7648-19.2512 9.1136-18.8416 19.1488 1.024 11.6736 9.3184 17.8176 24.576 18.432s25.7024-6.0416 28.2624-19.0464l-13.9264-2.6624a11.776 11.776 0 0 1-13.312 10.24c-6.656 0-10.24-2.56-10.752-7.168s3.584-7.3728 12.6976-9.1136a63.5904 63.5904 0 0 0 14.6432-4.8128 19.456 19.456 0 0 0 12.288-17.6128c-0.6144-12.9024-9.4208-19.6608-26.3168-20.48s-27.648 7.2704-30.72 22.3232l13.6192 2.9696a14.4384 14.4384 0 0 1 16.1792-14.5408c7.5776 0 11.5712 3.072 12.0832 8.8064 0.512 4.7104-2.4576 7.7824-8.4992 9.9328zM512 896a512 512 0 1 1 512-512A512 512 0 0 1 512 896zM244.224 703.0784a418.5088 418.5088 0 0 0 537.8048 0 12.5952 12.5952 0 1 0-16.2816-19.3536 392.6016 392.6016 0 0 1-240.128 92.16V619.52a12.6976 12.6976 0 0 0-25.3952 0V775.3728a392.704 392.704 0 0 1-239.7184-92.16 12.5952 12.5952 0 1 0-16.2816 19.3536z m238.6944-147.456a29.184 29.184 0 0 0 58.368 0v-1.4336l115.0976-96.6656h30.72A21.9136 21.9136 0 0 0 709.5296 435.2v-188.8256a22.2208 22.2208 0 0 0-22.1184-22.2208H336.5888a22.2208 22.2208 0 0 0-22.1184 22.2208V435.2a22.1184 22.1184 0 0 0 22.1184 22.1184h36.5568l110.2848 92.16a33.8944 33.8944 0 0 0-0.512 6.144zM184.32 145.3056a12.6976 12.6976 0 0 0-18.0224 3.1744 418.304 418.304 0 0 0-3.9936 461.7216 12.6976 12.6976 0 0 0 21.1968-13.824 388.5056 388.5056 0 0 1-62.8736-201.3184H276.48a12.6976 12.6976 0 0 0 0-25.3952H120.6272a389.12 389.12 0 0 1 66.6624-207.0528 12.5952 12.5952 0 0 0-2.9696-17.3056z m598.1184-79.872a417.792 417.792 0 0 0-268.9024-97.8944 417.792 417.792 0 0 0-268.6976 97.8944 12.5952 12.5952 0 0 0 16.2816 19.3536 391.0656 391.0656 0 0 1 239.7184-92.16V145.7152a12.6976 12.6976 0 0 0 25.3952 0v-152.576a390.9632 390.9632 0 0 1 240.128 92.16 12.5952 12.5952 0 0 0 16.2816-19.3536zM911.36 257.9456A419.0208 419.0208 0 0 0 860.16 148.48a12.5952 12.5952 0 1 0-20.48 14.2336 390.9632 390.9632 0 0 1 63.1808 207.2576H749.8752a12.6976 12.6976 0 0 0 0 25.3952h152.1664a386.6624 386.6624 0 0 1-66.4576 201.1136 12.6976 12.6976 0 1 0 20.992 14.2336 417.5872 417.5872 0 0 0 71.68-227.4304V377.2416A419.2256 419.2256 0 0 0 911.36 257.9456zM532.48 534.8352a29.2864 29.2864 0 0 0-20.48-8.3968 28.7744 28.7744 0 0 0-17.7152 6.144l-89.4976-74.9568H624.64z"  horiz-adv-x="1024" />

    
    <glyph glyph-name="lxrgl" unicode="&#58998;" d="M512 896a512 512 0 1 1 512-512A512 512 0 0 1 512 896z m285.3888-819.2a59.1872 59.1872 0 0 0-59.1872-59.1872H250.6752A59.1872 59.1872 0 0 0 191.488 76.8V691.2a59.1872 59.1872 0 0 0 59.1872 59.1872h487.5264A59.1872 59.1872 0 0 0 797.3888 691.2v-67.3792a14.848 14.848 0 0 0-29.5936 0V691.2a29.5936 29.5936 0 0 1-29.5936 29.5936H250.6752A29.5936 29.5936 0 0 1 221.0816 691.2v-614.4a29.5936 29.5936 0 0 1 29.5936-29.5936h487.5264A29.5936 29.5936 0 0 1 768 76.8v67.6864a14.7456 14.7456 0 0 0 29.3888 0zM373.3504 454.5536a110.7968 110.7968 0 0 0 27.648 76.288 96.3584 96.3584 0 0 0 140.6976 0 110.2848 110.2848 0 0 0 27.648-76.288A145.3056 145.3056 0 0 0 545.28 373.76a213.6064 213.6064 0 0 0 60.0064-28.16c27.9552-19.5584 43.4176-43.6224 43.4176-67.7888A57.5488 57.5488 0 0 0 621.2608 230.4a122.88 122.88 0 0 0-42.9056-15.9744 568.7296 568.7296 0 0 0-107.3152-7.7824 566.784 566.784 0 0 0-106.9056 7.3728 122.88 122.88 0 0 0-42.7008 16.384 57.5488 57.5488 0 0 0-27.4432 48.128c0 24.1664 15.4624 48.2304 43.6224 67.8912A215.7568 215.7568 0 0 0 397.5168 373.76a147.5584 147.5584 0 0 0-24.1664 80.7936z m446.464-246.6816H714.752a16.0768 16.0768 0 1 0 0 32.1536h105.0624a16.0768 16.0768 0 0 0 0-32.1536z m-54.9888 102.4V458.0352a16.0768 16.0768 0 1 0 32.1536 0v-148.0704a16.0768 16.0768 0 1 0-32.1536 0z m54.9888 220.9792H714.752a16.0768 16.0768 0 1 0 0 32.1536h105.0624a16.0768 16.0768 0 0 0 0-32.1536zM339.1488 256.9216a90.8288 90.8288 0 0 1 31.6416-11.3664 536.6784 536.6784 0 0 1 100.5568-6.7584 538.0096 538.0096 0 0 1 100.6592 6.7584A92.16 92.16 0 0 1 604.16 256.9216a25.7024 25.7024 0 0 1 12.9024 21.1968c0 13.1072-10.8544 28.16-29.696 40.96a193.1264 193.1264 0 0 1-71.68 29.0816 15.9744 15.9744 0 0 0-10.24 6.4512A17.5104 17.5104 0 0 0 501.76 363.52a18.8416 18.8416 0 0 0 5.632 15.1552l0.8192 0.8192a110.08 110.08 0 0 1 28.7744 75.0592 78.848 78.848 0 0 1-19.1488 54.4768 64 64 0 0 1-93.2864 0 78.336 78.336 0 0 1-19.1488-54.4768 108.9536 108.9536 0 0 1 29.696-75.9808l0.9216-0.9216a18.432 18.432 0 0 0 5.12-14.1312 17.1008 17.1008 0 0 0-4.1984-10.24 16.384 16.384 0 0 0-9.0112-5.12 194.56 194.56 0 0 1-71.68-28.9792c-18.944-13.2096-29.9008-28.3648-29.9008-41.472a25.6 25.6 0 0 1 12.8-20.7872z"  horiz-adv-x="1024" />

    
    <glyph glyph-name="hkdj" unicode="&#59001;" d="M602.9312 133.0176a12.8 12.8 0 0 1-2.7648-7.168l-2.1504-80.2816a4.7104 4.7104 0 0 1 0.8192-3.1744 4.096 4.096 0 0 1 3.1744 0l77.0048 22.9376a12.3904 12.3904 0 0 1 6.144 4.608l84.48 110.1824-81.92 62.976zM730.3168 291.84h-1.3312a11.264 11.264 0 0 1-7.9872-4.9152L701.2352 261.12l81.92-63.0784 19.7632 25.8048c3.4816 4.608 3.1744 9.216 1.8432 10.24zM384.512 577.4336h241.0496a16.0768 16.0768 0 0 1 16.0768 16.0768V637.952a16.1792 16.1792 0 0 1-16.0768 16.1792h-51.2a11.3664 11.3664 0 0 0-8.2944 3.4816 11.776 11.776 0 0 0-3.1744 8.3968v2.2528a57.7536 57.7536 0 1 1-115.4048 0v-2.2528a11.3664 11.3664 0 0 0-11.3664-11.8784h-51.2A16.1792 16.1792 0 0 1 368.64 637.952v-44.4416a16.0768 16.0768 0 0 1 15.872-16.0768zM512 896a512 512 0 1 1 512-512A512 512 0 0 1 512 896z m-6.9632-866.6112H256a50.0736 50.0736 0 0 0-51.2 48.5376v501.76a50.176 50.176 0 0 0 51.2 48.64h89.2928v9.6256a39.0144 39.0144 0 0 0 39.0144 38.912h40.96a80.4864 80.4864 0 0 0 160.0512 0h40.448a38.912 38.912 0 0 0 38.912-38.912v-9.6256h81.2032a50.0736 50.0736 0 0 0 51.2-48.64v-239.2064a11.3664 11.3664 0 0 0-22.7328 0V579.7888a27.3408 27.3408 0 0 1-28.5696 25.8048h-81.408v-11.9808a38.912 38.912 0 0 0-38.8096-39.0144H384.512a39.1168 39.1168 0 0 0-39.0144 39.0144v11.9808H256a27.3408 27.3408 0 0 1-28.5696-25.8048v-501.76A27.3408 27.3408 0 0 1 256 52.224h248.832a11.4688 11.4688 0 1 0 0-22.8352z m5.632 319.7952v-15.4624h-46.3872v-25.8048h46.3872v-15.4624h-46.3872v-51.2h-15.4624v51.2H402.432v15.4624h46.3872v25.8048H402.432V349.184H440.32l-37.888 56.7296h20.48l33.5872-50.2784 33.4848 50.2784h20.48l-37.5808-56.7296z m-56.7296 118.5792c-59.0848 0-104.6528-29.0816-127.3856-82.5344l10.24 3.584a7.68 7.68 0 0 0 8.6016-4.1984 7.5776 7.5776 0 0 0-2.048-9.1136l-36.864-30.0032a7.68 7.68 0 0 0-12.4928 7.0656 162.0992 162.0992 0 0 0 319.8976 0 9.6256 9.6256 0 0 0-10.9568-9.4208c-8.2944 0-10.24 3.6864-10.8544 7.8848a134.656 134.656 0 0 1-138.1376 116.736z m0-309.4528a162.2016 162.2016 0 0 0-159.8464 135.9872 9.6256 9.6256 0 0 0 10.9568 9.3184c8.2944 0 10.24-3.6864 10.8544-7.7824A134.656 134.656 0 0 1 454.0416 179.2c59.0848 0 104.6528 29.0816 127.3856 82.6368l-10.24-3.6864a7.8848 7.8848 0 0 0-8.6016 4.1984 7.5776 7.5776 0 0 0 2.048 9.1136l36.864 30.0032a7.7824 7.7824 0 0 0 11.0592-1.3312 7.4752 7.4752 0 0 0 1.4336-5.632A160.3584 160.3584 0 0 0 454.0416 158.72zM821.4528 209.92L703.488 56.32a36.0448 36.0448 0 0 0-17.408-12.8l-76.9024-22.9376a27.5456 27.5456 0 0 0-8.3968-1.3312 24.9856 24.9856 0 0 0-15.36 5.12 25.6 25.6 0 0 0-10.24 21.8112l2.1504 80.2816a36.1472 36.1472 0 0 0 7.4752 20.48l118.0672 153.6a30.0032 30.0032 0 0 0 40.96 8.704L819.2 252.416a30.1056 30.1056 0 0 0 2.2528-42.496z"  horiz-adv-x="1024" />

    
    <glyph glyph-name="error-circle" unicode="&#59009;" d="M512-128A512 512 0 1 0 1024 384 512 512 0 0 0 512-128z m-70.262154 517.513846L264.822154 212.75569199999995a46.473846 46.473846 0 1 1 64.275692-64.196923l176.836923 176.836923L682.929231 148.48000000000002a46.473846 46.473846 0 1 1 64.196923 64.196923L570.289231 389.592615l176.836923 176.836923a46.473846 46.473846 0 1 1-64.196923 64.275693L505.934769 453.789538 329.097846 630.705231a46.473846 46.473846 0 0 1-64.275692-63.803077l176.915692-177.309539z"  horiz-adv-x="1024" />

    
    <glyph glyph-name="angle-left" unicode="&#59010;" d="M309.2713 385.163946c109.559947-97.887205 216.713672-193.47058 323.867395-289.002758l164.288725-146.830808c23.80625-20.990457 28.5675-44.284745 11.877527-62.971371-19.045-20.939261-42.85125-18.584234-66.657501 4.710053-166.643752 144.475781-328.57745 291.306589-492.866174 435.833567-9.5225 9.317715-19.045 16.280403-28.5675 23.294288-21.451223 18.63543-21.451223 48.943603-2.406223 65.275202l385.763646 342.554022C649.726276 800.007055 697.338777 839.632943 742.647446 881.613857c23.80625 20.990457 52.373751 18.63543 66.657501-4.607661 11.928723-18.686627 7.167473-39.677084-14.28375-60.616345a46898.056993 46898.056993 0 0 0-352.3837-314.652073c-42.85125-34.96703-85.702501-74.592917-133.315001-116.522635z"  horiz-adv-x="1024" />

    
    <glyph glyph-name="mobile" unicode="&#59011;" d="M512 74.752a52.565333 52.565333 0 0 1-52.8384-52.224 52.565333 52.565333 0 0 1 52.8384-52.224 52.565333 52.565333 0 0 1 52.8384 52.224 52.565333 52.565333 0 0 1-52.8384 52.155733zM773.5296 896H250.538667C206.4384 896 170.666667 860.637867 170.666667 817.220267v-866.440534C170.666667-92.637867 206.4384-128 250.4704-128h523.0592C817.5616-128 853.333333-92.637867 853.333333-49.220267V817.220267C853.333333 860.637867 817.5616 896 773.5296 896zM250.538667 843.434667h523.0592c14.677333 0 26.624-11.741867 26.624-26.2144v-649.147734H223.8464v649.216C223.914667 831.624533 235.793067 843.434667 250.538667 843.434667z m523.0592-918.869334H250.538667a26.487467 26.487467 0 0 0-26.624 26.2144v160.290134h576.3072v-160.290134a26.487467 26.487467 0 0 0-26.624-26.282666z"  horiz-adv-x="1024" />

    
    <glyph glyph-name="key" unicode="&#59014;" d="M534.128 22.016c-114.816-120.32-301.12-120.32-415.872 0-115.008 120.32-115.008 315.456-0.128 435.84 103.68 108.544 265.28 118.784 380.288 31.36l375.04 392.96a29.952 29.952 0 0 0 43.776 0c12.16-12.672 12.16-33.152 0-45.824l-43.776-45.888 109.44-114.688c12.16-12.672 12.16-33.216 0-45.888a29.952 29.952 0 0 0-43.776 0l-109.44 114.624-65.664-68.736 109.44-114.688c12.16-12.672 12.16-33.216 0-45.888a29.952 29.952 0 0 0-43.776 0l-109.44 114.688-175.808-184.192c104.064-120.96 100.864-307.2-10.24-423.68zM161.904 411.904c-90.624-94.976-90.752-248.96 0-344.128a224.768 224.768 0 0 1 328.448 0c90.688 94.976 90.688 249.024 0 344.128a224.768 224.768 0 0 1-328.448 0z"  horiz-adv-x="1024" />

    
    <glyph glyph-name="eye-close" unicode="&#58984;" d="M1004.553 561.185c10.67 16.006 7.056 37.518-7.057 49.91-16.005 12.563-37.518 8.949-49.909-7.057-1.72-1.72-199.809-235.606-435.415-235.606-228.55 0-435.587 235.606-437.308 237.327-12.564 14.285-35.625 16.006-49.91 3.615-14.284-12.564-16.004-35.625-3.612-49.91 3.614-5.335 46.467-53.523 114.274-107.046l-91.04-94.656c-14.285-14.284-12.564-37.518 1.72-49.91 3.614-7.055 12.563-10.67 21.34-10.67 8.95 0 17.9 3.615 24.955 10.67l98.098 101.712c46.467-32.182 101.711-62.472 162.463-83.813l-37.346-126.838c-5.335-19.62 5.335-39.24 24.955-44.574h10.67c16.005 0 30.29 10.67 33.904 26.848l37.518 126.666c28.569-5.335 58.858-8.95 89.32-8.95s60.752 3.615 89.32 8.95l37.517-124.946c3.615-16.006 19.62-26.848 33.904-26.848 3.614 0 7.056 0 8.95 1.72 19.619 5.336 30.29 24.956 24.954 44.575L669.3 327.3c60.752 21.34 115.996 51.803 162.463 83.813l96.377-99.99c7.056-7.056 16.005-10.67 24.954-10.67s17.899 3.614 24.955 10.67c14.284 14.284 14.284 35.625 1.721 49.909l-91.041 94.656c73.143 53.695 115.824 105.497 115.824 105.497z"  horiz-adv-x="1024" />

    
    <glyph glyph-name="move" unicode="&#59016;" d="M336.151273 42.666667C287.650909 42.666667 248.242424 4.468364 248.242424-42.666667S287.619879-128 336.151273-128c48.562424 0 87.939879 38.198303 87.939879 85.333333S384.713697 42.666667 336.151273 42.666667z m0 426.666666C287.650909 469.333333 248.242424 431.13503 248.242424 384s39.377455-85.333333 87.908849-85.333333c48.562424 0 87.939879 38.198303 87.939879 85.333333s-39.377455 85.333333-87.939879 85.333333z m0 426.666667C287.650909 896 248.242424 857.801697 248.242424 810.666667S287.619879 725.333333 336.151273 725.333333c48.562424 0 87.939879 38.198303 87.939879 85.333334S384.713697 896 336.151273 896z m351.697454-853.333333c-48.562424 0-87.939879-38.198303-87.939879-85.333334S639.286303-128 687.848727-128C736.349091-128 775.757576-89.801697 775.757576-42.666667s-39.377455 85.333333-87.908849 85.333334z m0 426.666666c-48.562424 0-87.939879-38.198303-87.939879-85.333333s39.377455-85.333333 87.939879-85.333333C736.349091 298.666667 775.757576 336.86497 775.757576 384s-39.377455 85.333333-87.908849 85.333333z m0 426.666667c-48.562424 0-87.939879-38.198303-87.939879-85.333333s39.377455-85.333333 87.939879-85.333334C736.349091 725.333333 775.757576 763.531636 775.757576 810.666667S736.380121 896 687.848727 896z"  horiz-adv-x="1024" />

    
    <glyph glyph-name="circle-o" unicode="&#58986;" d="M507.085 872.55a493.363 493.363 0 1 1 493.363-493.363A493.363 493.363 0 0 1 507.085 872.55z m0-952.32a459.264 459.264 0 1 0 459.264 458.957 459.264 459.264 0 0 0-459.264-459.264z"  horiz-adv-x="1024" />

    
    <glyph glyph-name="baidu" unicode="&#58987;" d="M184.692364 357.236364c111.173818 23.877818 96.023273 156.741818 92.695272 185.786181-5.445818 44.753455-58.112 123.019636-129.629091 116.829091C57.832727 651.776 44.683636 521.774545 44.683636 521.774545c-12.171636-60.090182 29.114182-188.462545 140.032-164.538181z m118.062545-231.098182c-3.258182-9.332364-10.519273-33.233455-4.235636-54.039273 12.404364-46.661818 52.898909-48.756364 52.898909-48.756364h58.228363v142.312728h-62.347636c-27.997091-8.378182-41.518545-30.161455-44.544-39.517091z m88.273455 453.888c61.393455 0 111.034182 70.679273 111.034181 158.045091C502.062545 825.344 452.421818 896 391.028364 896c-61.323636 0-111.057455-70.632727-111.057455-157.928727 0-87.365818 49.757091-158.021818 111.057455-158.021818z m264.471272-10.426182c82.059636-10.658909 134.842182 76.916364 145.338182 143.290182 10.705455 66.304-42.263273 143.290182-100.352 156.532363-58.228364 13.358545-130.909091-79.895273-137.541818-140.706909-7.912727-74.309818 10.635636-148.596364 92.555636-159.115636z m201.076364-390.213818s-126.976 98.210909-201.099636 204.404363c-100.468364 156.555636-243.2 92.858182-290.955637 13.21891-47.522909-79.592727-121.623273-129.954909-132.142545-143.290182-10.682182-13.125818-153.367273-90.158545-121.693091-230.865455 31.650909-140.613818 142.941091-137.937455 142.941091-137.937454s81.989818-8.075636 177.105454 13.218909c95.185455 21.108364 177.105455-5.259636 177.105455-5.259637s222.301091-74.449455 283.112727 68.840728c60.741818 143.36-34.373818 217.669818-34.373818 217.669818z m-380.322909-213.271273h-144.523636c-62.394182 12.450909-87.249455 55.04-90.391273 62.301091-3.072 7.377455-20.805818 41.588364-11.403637 99.84 26.949818 87.272727 103.842909 93.509818 103.84291 93.509818h76.939636v94.557091l65.512727-1.000727v-349.207273h0.023273z m269.149091 1.000727h-166.306909c-64.442182 16.616727-67.444364 62.417455-67.444364 62.417455V213.410909l67.444364 1.093818v-165.259636c4.119273-17.640727 26.018909-20.829091 26.018909-20.829091h68.538182v185.018182h71.749818v-246.318546z m235.403636 490.984728c0 31.767273-26.368 127.394909-124.229818 127.394909-98.001455 0-111.104-90.251636-111.104-154.065455 0-60.881455 5.143273-145.873455 126.882909-143.173818 121.786182 2.699636 108.450909 137.937455 108.450909 169.844364z"  horiz-adv-x="1024" />

    
    <glyph glyph-name="circle" unicode="&#58988;" d="M512 384m-460.8 0a460.8 460.8 0 1 1 921.6 0 460.8 460.8 0 1 1-921.6 0Z"  horiz-adv-x="1024" />

    
    <glyph glyph-name="file-minus" unicode="&#59017;" d="M454.822054 824.652108v-237.844757c0-21.033514-17.048216-38.054054-38.054054-38.054054h-248.527568v-535.247567c0-23.607351 1.383784-30.775351 5.286054-38.137081 2.905946-5.396757 6.918919-9.40973 12.343352-12.315676 7.334054-3.929946 14.52973-5.31373 38.137081-5.31373h428.198054a35.673946 35.673946 0 1 0 0-71.375567H224.006919c-34.373189 0-52.694486 3.542486-71.790703 13.75481A100.490378 100.490378 0 0 0 110.619676-58.257297C100.379676-39.161081 96.864865-20.895135 96.864865 13.533405V574.851459c0 20.147892 0.774919 29.723676 3.404108 40.766271 2.656865 11.153297 6.97427 21.282595 13.201297 30.913729 6.144 9.548108 12.537081 16.716108 27.122162 30.664649l187.032217 179.061622c13.976216 13.395027 21.033514 19.179243 30.221837 24.769729A97.695135 97.695135 0 0 0 387.653189 892.955676c10.516757 2.352432 19.594378 3.016649 38.967352 3.016648h268.509405c34.373189 0 52.694486-3.542486 71.790703-13.75481A100.490378 100.490378 0 0 0 808.517189 840.648649c10.24-19.096216 13.754811-37.417514 13.754811-71.790703V240.64a35.673946 35.673946 0 1 0-71.347892 0V768.857946c0 23.607351-1.383784 30.803027-5.31373 38.137081a29.197838 29.197838 0 0 1-12.343351 12.343351c-7.334054 3.929946-14.52973 5.31373-38.137081 5.31373h-240.307892zM636.540541 121.081081h249.081081a41.513514 41.513514 0 0 0 0-83.027027h-249.081081a41.513514 41.513514 0 0 0 0 83.027027zM376.942703 804.697946l-187.032217-179.061622c-1.937297-1.826595-3.819243-3.680865-5.701189-5.535135h199.264865V810.841946c-2.214054-2.020324-4.372757-4.068324-6.531459-6.144z"  horiz-adv-x="1024" />

    
    <glyph glyph-name="file-plus" unicode="&#59018;" d="M439.996632 805.456842v-231.558737c0-20.48-16.572632-37.052632-37.052632-37.052631h-241.987368v-521.162106c0-22.986105 1.347368-29.992421 5.173894-37.133473 2.802526-5.254737 6.736842-9.189053 11.991579-12.018527 7.168-3.799579 14.147368-5.173895 37.160421-5.173894H632.185263a34.735158 34.735158 0 1 0 0-69.470316H215.282526c-33.495579 0-51.334737 3.449263-69.901473 13.392842a97.845895 97.845895 0 0 0-40.528842 40.501895c-9.943579 18.593684-13.365895 36.432842-13.365895 69.901473V562.229895c0 19.644632 0.727579 28.968421 3.287579 39.720421 2.586947 10.859789 6.817684 20.722526 12.853894 30.10021 6.009263 9.269895 12.234105 16.276211 26.408422 29.830737l182.110315 174.349474c13.635368 13.069474 20.48 18.701474 29.453474 24.117895A95.124211 95.124211 0 0 0 374.568421 872.016842c10.24 2.263579 19.078737 2.937263 37.941895 2.937263h261.443368c33.495579 0 51.334737-3.449263 69.901474-13.392842a97.845895 97.845895 0 0 0 40.528842-40.501895c9.943579-18.593684 13.392842-36.432842 13.392842-69.901473v-406.528a34.735158 34.735158 0 1 0-69.497263 0V751.157895c0 22.986105-1.347368 29.992421-5.173895 37.133473a28.429474 28.429474 0 0 1-11.991579 12.018527c-7.168 3.799579-14.147368 5.173895-37.160421 5.173894h-233.984z m-69.470316-13.419789c-2.128842-1.967158-4.230737-3.961263-6.332632-5.982316l-182.110316-174.349474c-1.886316-1.778526-3.718737-3.584-5.578105-5.389474h194.021053V792.037053z m361.256421-695.188211V201.027368a34.735158 34.735158 0 1 0 69.470316 0v-104.205473h103.073684a34.735158 34.735158 0 1 0 0-69.470316h-103.073684v-103.073684a34.735158 34.735158 0 1 0-69.470316 0v103.073684H627.604211a34.735158 34.735158 0 1 0 0 69.470316h104.205473z"  horiz-adv-x="1024" />

    
    <glyph glyph-name="dashboard" unicode="&#59019;" d="M1146.88 292.992a562.976 562.976 0 0 1-44.384 232.96 564.544 564.544 0 0 1-121.408 180.064A564.576 564.576 0 0 1 580.512 871.936 564.544 564.544 0 0 1 179.936 706.016a564.576 564.576 0 0 1-165.76-413.024 44.608 44.608 0 0 1 0.256-9.312c2.72-73.216 19.264-144 49.312-210.688a564.416 564.416 0 0 1 134.688-185.824 43.872 43.872 0 0 1 62.176 2.784c16.384 17.952 15.136 45.76-2.816 62.176a476.928 476.928 0 0 0-152.096 293.504h75.392a44 44 0 0 1 0 88H102.848a474.976 474.976 0 0 0 139.328 310.144 474.88 474.88 0 0 0 281.536 136.8v-83.584a44 44 0 0 1 88 0V782.912a474.944 474.944 0 0 0 307.168-139.136 474.976 474.976 0 0 0 139.296-310.144h-78.24a44 44 0 0 1 0-88h75.392a476.96 476.96 0 0 0-149.76-291.296 44 44 0 1 1 59.84-64.576 564.48 564.48 0 0 1 132.672 185.024 561.28 561.28 0 0 1 48.512 208.896 44.384 44.384 0 0 1 0.288 9.312z"  horiz-adv-x="1152" />

    
    <glyph glyph-name="minus-circle" unicode="&#59020;" d="M512-128A512 512 0 1 0 512 896a512 512 0 0 0 0-1024zM170.666667 469.333333v-170.666666h682.666666V469.333333H170.666667z"  horiz-adv-x="1024" />

    
    <glyph glyph-name="plus-circle" unicode="&#59021;" d="M426.666667 469.333333H170.666667v-170.666666h256v-256h170.666666V298.66666699999996h256V469.333333H597.333333V725.333333H426.666667v-256z m85.333333-597.333333A512 512 0 1 0 512 896a512 512 0 0 0 0-1024z"  horiz-adv-x="1024" />

    
    <glyph glyph-name="plus" unicode="&#59022;" d="M1004.357818 397.870545c0.418909 29.463273-27.927273 53.620364-58.88 52.363637l-373.620363-5.213091-1.95491 383.069091C568.645818 856.715636 545.466182 882.408727 517.259636 882.408727c-26.996364-0.465455-51.665455-16.384-53.061818-48.872727L462.196364 444.322909l-381.393455-4.189091c-28.485818-0.325818-51.758545-19.362909-50.501818-51.106909 1.396364-35.002182 33.978182-52.130909 58.274909-52.130909l377.157818 2.001455 10.426182-391.540364c1.396364-27.648 22.434909-52.922182 50.967273-51.525818 32.302545 1.582545 45.149091 20.945455 45.614545 53.248l-1.722182 385.861818 388.980364 10.705454c29.230545 1.024 44.637091 29.975273 44.357818 52.270546z"  horiz-adv-x="1024" />

    
    <glyph glyph-name="restore" unicode="&#59024;" d="M637.44 663.04H209.92a160 160 0 0 1-160-160V128a160 160 0 0 1 160-160h427.52a160 160 0 0 1 160 160V502.72a160 160 0 0 1-160 160.32z m64-534.72a64 64 0 0 0-64-64H209.92a64 64 0 0 0-64 64v374.4a64 64 0 0 0 64 64h427.52a64 64 0 0 0 64-64zM794.56 855.04H367.04a48 48 0 1 1 0-96h427.52a64 64 0 0 0 64-64V320a48 48 0 0 1 96 0V694.72a160 160 0 0 1-160 160.32z"  horiz-adv-x="1024" />

    
    <glyph glyph-name="thumbs-up-o" unicode="&#59026;" d="M1023.232 397.196c0.372-4.701 0-9.542-1.257-14.383l-92.09-406.458a42.59 42.59 0 0 0-6.12-13.219 124.975 124.975 0 0 0-112.431-69.353v0.28l-591.523 0.232a42.752 42.752 0 0 0-6.284-0.512c-2.187 0-4.282 0.233-6.376 0.536l-157.324 0.07a42.612 42.612 0 0 0-49.385 42.03L0.815 448c0 23.529 19.083 42.59 42.635 42.59 1.746 0 3.491-0.117 5.167-0.327l141.451 0.326v0.815c130.095 9.309 233.216 115.968 236.917 247.598A123.974 123.974 0 0 0 550.4 874.217a123.95 123.95 0 0 0 120.692-96.024l0.605 0.094a447.422 447.422 0 0 0 10.799-97.467 445.3 445.3 0 0 0-24.948-147.27l237.87-0.255c2.188 0 4.329-0.233 6.447-0.559a126.37 126.37 0 0 0 102.772-59.648 125.579 125.579 0 0 0 18.572-75.87zM85.713-20.41l85.225-0.023 0.303 425.774-85.132-0.186-0.396-425.565z m846.988 448.977a41.076 41.076 0 0 1-37.166 19.363v0.117h-0.094l-300.683 0.325a42.636 42.636 0 0 0-38.167 61.464l-0.466 0.372a361.286 361.286 0 0 1 36.445 102.703h0.535s5.656 22.993 5.586 67.118a389.167 389.167 0 0 1-6.423 66.91h-0.326c0.023 0.604 0.093 1.21 0.093 1.861a39.866 39.866 0 1 1-79.71 0c0-0.93 0.094-1.862 0.14-2.746h-0.558s0.698-33.28-5.958-67.794a311.785 311.785 0 0 0-10.403-39.098 13.568 13.568 0 0 0-0.186 0.093 340.015 340.015 0 0 0-238.778-223.302l-0.42-436.433 555.358-0.233c1.885 0 3.724-0.14 5.539-0.395a39.633 39.633 0 0 1 31.418 24.087l0.093-0.07 88.67 391.354-0.35 0.093a40.96 40.96 0 0 1-4.189 34.211z"  horiz-adv-x="1024" />

    
    <glyph glyph-name="refresh" unicode="&#59027;" d="M808.421053 76.907789a371.873684 371.873684 0 0 0-221.345685-68.985263 403.402105 403.402105 0 0 0-30.962526 1.589895c-4.149895 0.377263-8.299789 1.077895-12.530526 1.616842-8.030316 1.077895-16.060632 2.155789-23.848421 3.718737-4.850526 0.916211-9.593263 2.155789-14.336 3.287579a400.626526 400.626526 0 0 0-22.824421 5.928421c-3.584 1.104842-7.087158 2.425263-10.671158 3.637895a364.058947 364.058947 0 0 0-25.6 9.485473c-1.886316 0.808421-3.772632 1.670737-5.605053 2.56a378.341053 378.341053 0 0 0-28.833684 14.066527l-1.266526 0.646737a382.302316 382.302316 0 0 0-86.016 65.239579 30.800842 30.800842 0 0 0-1.212632 1.347368 364.193684 364.193684 0 0 0-22.581895 25.114947c-1.509053 1.886316-2.964211 3.880421-4.446315 5.766737a383.784421 383.784421 0 0 0-82.890106 238.484211h87.686737a6.386526 6.386526 0 0 1 5.308632 9.862737l-147.348211 223.797894a6.413474 6.413474 0 0 1-5.335579 2.883369 6.413474 6.413474 0 0 1-5.308631-2.883369L1.077895 400.303158a6.359579 6.359579 0 0 1 5.308631-9.889684h87.713685a504.724211 504.724211 0 0 1 88.037052-285.399579c0.700632-1.131789 1.158737-2.344421 1.886316-3.476211 5.793684-8.326737 12.126316-15.952842 18.32421-23.821473 2.263579-2.964211 4.446316-6.036211 6.817685-8.946527 9.081263-11.156211 18.728421-21.611789 28.591158-31.878737 0.997053-0.997053 1.859368-1.994105 2.775579-2.910315a491.546947 491.546947 0 0 1 111.831578-84.830316c1.077895-0.673684 2.101895-1.320421 3.233685-1.913263 11.802947-6.413474 23.929263-12.234105 36.24421-17.704421 3.045053-1.347368 5.982316-2.802526 9.108211-4.122948 10.509474-4.419368 21.315368-8.272842 32.175158-11.964631 5.12-1.778526 10.24-3.557053 15.440842-5.173895 9.512421-2.856421 19.240421-5.227789 28.995368-7.599158 6.521263-1.536 12.934737-3.179789 19.56379-4.446316 2.721684-0.592842 5.308632-1.428211 8.030315-1.859368 9.242947-1.643789 18.485895-2.56 27.75579-3.718737 3.341474-0.377263 6.629053-0.943158 9.916631-1.347368 16.626526-1.616842 33.145263-2.721684 49.664-2.721685 101.160421 0 199.814737 31.312842 284.456422 91.351579a60.954947 60.954947 0 0 1 14.659368 84.156632 59.230316 59.230316 0 0 1-83.159579 14.821052z m280.656842 313.505685a504.805053 504.805053 0 0 1-87.632842 284.725894c-0.808421 1.401263-1.374316 2.802526-2.263579 4.069053-6.871579 9.916632-14.336 19.132632-21.773474 28.429474-0.862316 1.131789-1.670737 2.317474-2.586947 3.395368a492.624842 492.624842 0 0 1-185.721264 141.231158c-1.967158 0.889263-3.934316 1.859368-5.928421 2.721684a580.122947 580.122947 0 0 1-34.977684 13.015579c-4.284632 1.401263-8.488421 2.964211-12.826947 4.257684a475.351579 475.351579 0 0 1-31.258948 8.165053c-5.820632 1.347368-11.587368 2.883368-17.488842 4.042105-2.964211 0.538947-5.658947 1.428211-8.542315 1.940211-7.868632 1.401263-15.791158 1.994105-23.632843 3.018105-5.443368 0.673684-10.805895 1.562947-16.303157 2.15579-13.204211 1.212632-26.327579 1.724632-39.450948 1.967157-2.371368 0-4.742737 0.377263-7.114105 0.377264-0.404211 0-0.808421-0.107789-1.266526-0.134737a489.310316 489.310316 0 0 1-283.971369-90.920421 60.901053 60.901053 0 0 1-14.74021-84.183579 59.230316 59.230316 0 0 1 83.186526-14.821053 371.873684 371.873684 0 0 0 219.567158 69.039158 379.957895 379.957895 0 0 0 33.226105-1.670737c3.395368-0.404211 6.709895-0.889263 10.051369-1.347368 9.027368-1.077895 17.92-2.371368 26.677894-4.149895 3.880421-0.727579 7.733895-1.751579 11.506527-2.613895 8.623158-1.967158 17.246316-4.069053 25.653894-6.656 2.640842-0.862316 5.254737-1.805474 7.895579-2.694737 9.647158-3.179789 19.078737-6.629053 28.375579-10.509473 0.943158-0.404211 1.886316-0.916211 2.829474-1.293474 55.619368-24.225684 104.448-61.547789 142.524632-108.193684l0.673684-0.916211a383.622737 383.622737 0 0 0 85.90821-242.418526H881.987368a6.359579 6.359579 0 0 1-5.308631-9.889684l147.402105-223.770948a6.413474 6.413474 0 0 1 10.644211 0l147.294315 223.770948a6.386526 6.386526 0 0 1-5.308631 9.889684h-87.632842z"  horiz-adv-x="1185" />

    
    <glyph glyph-name="user-cfg" unicode="&#59028;" d="M426.205405 378.077405c-141.256649 0-256.332108 115.075459-256.332108 256.332109S284.948757 890.741622 426.205405 890.741622s256.332108-115.075459 256.332109-256.332108-115.075459-256.332108-256.332109-256.332109z m0 451.77773a195.667027 195.667027 0 0 1-195.445621-195.445621 195.667027 195.667027 0 0 1 195.445621-195.445622 195.667027 195.667027 0 0 1 195.445622 195.445622A195.667027 195.667027 0 0 1 426.205405 829.855135zM42.620541-45.083676a30.166486 30.166486 0 0 0-30.443244 30.443244c0 228.324324 185.703784 414.028108 414.028108 414.028108 45.664865 0 91.32973-7.306378 135.168-22.528 15.830486-5.479784 24.354595-22.528 18.874811-38.358487a30.166486 30.166486 0 0 0-38.358486-18.874811 354.414703 354.414703 0 0 1-115.684325 18.874811c-194.836757 0-353.141622-158.304865-353.141621-353.141621 0-17.048216-13.395027-30.443243-30.443243-30.443244zM892.595892-14.031568c-121.164108 0-219.800216 98.636108-219.800216 219.800217s98.636108 219.800216 219.800216 219.800216 219.800216-98.636108 219.800216-219.800216-98.636108-219.800216-219.800216-219.800217z m0 378.713946a159.024432 159.024432 0 0 1-158.91373-158.913729 159.024432 159.024432 0 0 1 158.91373-158.91373 159.024432 159.024432 0 0 1 158.91373 158.91373 159.024432 159.024432 0 0 1-158.91373 158.913729zM890.769297 394.516757a30.166486 30.166486 0 0 0-30.443243 30.443243v69.410595c0 17.048216 13.395027 30.443243 30.443243 30.443243 17.048216 0 30.443243-13.395027 30.443244-30.443243v-69.410595c0-17.048216-13.395027-30.443243-30.443244-30.443243z m-155.869405-65.148541c-7.915243 0-15.830486 3.044324-21.919135 9.132973l-48.100325 49.318054a30.692324 30.692324 0 0 0 0.608865 43.229406 30.692324 30.692324 0 0 0 43.229406-0.608865l48.100324-49.318054c11.568432-12.177297 11.568432-31.052108-0.608865-43.229406a31.55027 31.55027 0 0 0-21.31027-8.524108z m-62.713081-156.47827H602.776216a30.166486 30.166486 0 0 0-30.443243 30.443243c0 17.048216 13.395027 30.443243 30.443243 30.443243h69.410595c17.048216 0 30.443243-13.395027 30.443243-30.443243 0-17.048216-13.395027-30.443243-30.443243-30.443243z m17.048216-203.360865c-7.915243 0-15.221622 3.044324-21.31027 8.524108-12.177297 11.568432-12.177297 31.052108 0 43.229406l48.709189 49.318054c11.568432 12.177297 31.052108 12.177297 43.229405 0 12.177297-11.568432 12.177297-31.052108 0-43.229406l-48.709189-49.318054c-6.088649-5.479784-14.003892-8.524108-21.919135-8.524108z m204.578595-84.023351a30.166486 30.166486 0 0 0-30.443244 30.443243v69.410595c0 17.048216 13.395027 30.443243 30.443244 30.443243 17.048216 0 30.443243-13.395027 30.443243-30.443243v-69.410595c0-17.048216-13.395027-30.443243-30.443243-30.443243z m203.360864 86.458811c-7.915243 0-15.221622 3.044324-21.31027 8.524108l-49.318054 48.709189c-12.177297 11.568432-12.177297 31.052108 0 43.229405 11.568432 12.177297 31.052108 12.177297 43.229406 0l49.318054-48.709189c12.177297-11.568432 12.177297-31.052108 0-43.229405-6.088649-5.479784-14.003892-8.524108-21.919136-8.524108z m84.023352 204.578594h-69.410595a30.166486 30.166486 0 0 0-30.443243 30.443243c0 17.048216 13.395027 30.443243 30.443243 30.443244h69.410595c17.048216 0 30.443243-13.395027 30.443243-30.443244 0-17.048216-13.395027-30.443243-30.443243-30.443243z m-133.95027 154.042811c-7.915243 0-15.221622 3.044324-21.310271 8.524108-12.177297 11.568432-12.177297 31.052108 0 43.229405l48.709189 49.318055c11.568432 12.177297 31.052108 12.177297 43.229406 0 12.177297-12.177297 12.177297-31.052108 0-43.229406l-48.709189-49.318054c-6.088649-5.479784-14.003892-8.524108-21.919135-8.524108z"  horiz-adv-x="1217" />

    
    <glyph glyph-name="user-select" unicode="&#59029;" d="M425.504551 601.759715c14.359121 18.253119 23.48568 40.424575 23.485681 65.22448a104.602543 104.602543 0 0 1-104.310493 104.286156 104.602543 104.602543 0 0 1-104.310494-104.310494c0-24.775567 9.12656-46.922686 23.485681-65.175805-59.991919-26.089792-101.706381-92.579822-101.706382-169.510635a78.464076 78.464076 0 0 1 78.220701-78.220702h208.620987a78.464076 78.464076 0 0 1 78.220701 78.220702c0 76.930814-41.714462 143.420844-101.706382 169.510635z m-80.824812 117.355389a52.325609 52.325609 0 0 0 52.155246-52.155247 52.325609 52.325609 0 0 0-52.155246-52.155246A52.325609 52.325609 0 0 0 292.524492 666.984195a52.325609 52.325609 0 0 0 52.155247 52.155246z m104.310493-312.907142H240.369245c-14.334783 0-26.065455 11.730671-26.065454 26.065455 0 71.722591 48.23691 130.400285 106.914605 130.400285h45.632798c58.653357 0 106.914605-58.677695 106.914605-130.400285 1.289887-14.334783-10.440784-26.065455-24.775567-26.065455zM73.925134 896h870.065359v-669.281046H877.062389V829.071895H140.853238V-40.993464h401.568628v-66.928105H73.925134V896z m551.487581-1024L489.560832 277.584314l407.579988-133.856209-181.362995-90.36511-90.36511-181.362995z"  horiz-adv-x="1024" />

    
    <glyph glyph-name="vip" unicode="&#59031;" d="M341.548529-127.575582c-16.194428 0-31.803956 3.436289-46.280239 10.308869-30.049255 14.256946-52.05613 42.222493-60.135065 77.060618l-19.082373 81.630153c-7.530592 33.119981-42.770837 77.060619-74.026449 91.317564l-76.329493 36.556271C33.269498 184.688083 10.165935 212.105286 2.635343 244.055467c-7.494036 31.986737 1.169801 66.824863 23.72502 94.20551l53.189374 65.655062c21.421975 26.832303 34.143557 81.045252 26.612965 114.165234l-19.082374 81.630152c-8.078936 34.838126-0.5849 69.091352 20.252174 95.338755 20.837074 25.699058 53.189374 40.540904 89.635976 40.540904h84.99333c34.728457 0 85.614786 23.980914 107.000204 50.813216l53.189374 65.655063C464.706606 880.02491 496.510561 896 530.069218 896c33.558657 0 65.362612-15.97509 87.917831-43.940637l53.189374-65.655063c21.385418-26.832303 72.271747-50.813216 107.000204-50.813216h84.99333c35.861702 0 68.835458-14.841846 89.635976-40.540904 20.837074-25.699058 28.33111-60.500628 20.252174-95.338755l-19.082373-81.630152c-7.530592-33.119981 5.19099-87.369487 26.612965-114.165234l53.189374-65.655062c22.555219-27.965547 31.219055-62.218773 23.725019-94.20551-7.530592-31.950181-30.085811-59.367384-63.059567-74.757574l-76.329493-36.556271c-31.219055-14.841846-66.532413-58.197583-74.026448-91.317564l-19.082374-81.630153c-8.078936-34.838126-30.085811-62.803673-60.135065-77.060618-30.085811-14.256946-65.947512-13.708602-98.336369 1.681588l-76.329493 36.556271c-31.219055 14.841846-87.881275 14.841846-118.551986 0l-76.329493-36.556271A135.258202 135.258202 0 0 0 341.548529-127.575582z m107.109874 329.006437c15.280521 0 26.576409 12.538801 26.576409 29.537467v19.192042c0 16.26754-11.953901 29.537467-26.576409 29.537467H364.907986v257.721709c0 16.26754-11.953901 29.574023-26.576409 29.574023h-19.301711c-14.622508 0-26.576409-13.306483-26.576408-29.537467v-306.487774c0-16.230984 11.953901-29.537467 26.576408-29.537467h129.628537z m213.781071 0a28.148328 28.148328 0 0 1 26.137734 19.192042l113.690002 306.487775a31.182499 31.182499 0 0 1-2.814833 27.34409 29.025679 29.025679 0 0 1-23.322901 12.538801h-21.86065c-11.332444 0-21.933762-8.115492-26.137733-19.192042l-71.357841-195.722274-67.080757 195.722274A29.354685 29.354685 0 0 1 562.860193 566.993563h-22.628332a27.234422 27.234422 0 0 1-23.286345-12.538801 31.36528 31.36528 0 0 1-3.545958-27.34409l107.365767-306.487775a28.33111 28.33111 0 0 1 26.832303-19.192042h14.841846z"  horiz-adv-x="1060" />

    
    <glyph glyph-name="thumbs-up" unicode="&#59032;" d="M1021.975273 382.836364l-92.090182-406.481455a42.589091 42.589091 0 0 0-6.120727-13.218909 124.974545 124.974545 0 0 0-112.430546-69.352727L219.810909-105.658182a42.752 42.752 0 0 0-6.283636-0.535273c-2.187636 0-4.282182 0.232727-6.376728 0.535273l-157.323636 0.069818a42.612364 42.612364 0 0 0-49.384727 42.030546L0.814545 448a42.612364 42.612364 0 0 0 47.802182 42.263273l141.451637 0.325818c130.094545 10.123636 233.216 116.782545 236.916363 248.413091A123.973818 123.973818 0 0 0 550.4 874.216727a123.950545 123.950545 0 0 0 120.692364-96.023272c7.773091-31.883636 11.380364-64.581818 11.403636-97.373091a445.300364 445.300364 0 0 0-24.948364-147.269819l237.870546-0.256c2.187636 0 4.328727-0.232727 6.446545-0.558545a126.370909 126.370909 0 0 0 102.772364-59.648c14.103273-22.667636 20.596364-49.245091 18.571636-75.869091 0.395636-4.724364 0.046545-9.565091-1.233454-14.405818z"  horiz-adv-x="1024" />

    
    <glyph glyph-name="Shape" unicode="&#59033;" d="M514.527842 896C230.705581 896 0 833.667896 0 756.296731c0-279.342541 409.830386-326.635585 409.830386-562.140866V78.707081C409.830386-94.466096 426.213362-127.936004 509.408162-127.936004c104.63346 0 104.63346 48.508968 104.63346 326.699581C614.105618 434.268858 1023.936004 482.71383 1023.936004 760.968439 1023.936004 833.667896 798.222111 896 514.527842 896z m262.255609-413.28617c-104.697456-77.307168-210.546841-153.526405-210.546841-288.621961 0-135.031561 0-216.946441-10.111368-259.695769-5.11968-19.646772-5.11968-24.254484-41.5974-24.254484-36.605712 0-36.605712 0-41.5974 24.31848-5.11968 24.190488-10.111368 62.268108-10.111368 115.384789h26.430348c16.382976 0 26.494344 9.215424 26.494344 24.254484 0 14.975064-10.111368 24.254484-26.494344 24.254484h-27.710268v48.444972h26.494344c16.382976 0 26.430348 9.215424 26.430348 24.254484 0 13.823136-10.047372 24.254484-26.430348 24.254484h-26.494344c0 135.031561-104.697456 211.186801-210.546841 288.621961C166.389601 546.133867 88.186488 603.858259 61.75614 690.444847c84.47472-43.83726 257.263921-72.699456 451.427786-72.699456 194.163865 0 363.177301 28.7982 451.427786 72.699456-30.270108-87.67452-109.689144-145.462909-187.892257-207.795013z m-262.319605 182.388601c-257.263921 0-462.755078 38.141616-462.755078 91.1943 0 53.11668 205.555153 95.866008 462.755078 95.866009 257.263921 0 462.819074-43.901256 462.819074-95.866009 0-51.900756-210.546841-91.1943-462.819074-91.1943z"  horiz-adv-x="1024" />

    
    <glyph glyph-name="dot-circle-o" unicode="&#59035;" d="M520.289 849.867a469.066 469.066 0 1 1 469.066-469 469.066 469.066 0 0 1-469.066 469z m0-845.274a376.274 376.274 0 1 0 376.207 376.274 376.274 376.274 0 0 0-376.207-376.274zM322.14 182.764A280.167 280.167 0 1 1 718.356 578.98 280.167 280.167 0 1 1 322.14 182.764z"  horiz-adv-x="1024" />

    
    <glyph glyph-name="tianyancha" unicode="&#59036;" d="M911.368239 470.3193c1.300754 18.985478 25.599952 185.980189-220.131908 168.26779C353.344646 614.592325 124.245836 251.432796 76.892845 121.08061-71.586874 358.952592 1.366069 671.493406 240.732535 819.557991c174.051995 107.547472 398.030815 101.209754 565.68974-16.466996-35.839932 6.337718-255.999516 55.683354-473.529915-101.209754 353.22398 142.97227 550.32977 46.799479 595.136604-15.221593 71.679864-99.936676 16.605374-197.35487-16.660725-216.340348zM1024.008026 389.340427c0-87.316592-23.026119-172.087026-65.286795-248.001261-200.925025-65.812632-346.830911 68.303438-372.430863 131.569913 163.83969-91.080476 381.397765 8.856199 433.870746 177.151665 2.573833-20.230881 3.846912-40.489437 3.846912-60.720317zM581.198053-122.796983c-23.247524-3.874587-47.823477-5.203017-71.098676-5.203017A511.694599 511.694599 0 0 0 110.712457 63.626016C130.085393 139.235819 242.559126 431.24132 565.699704 591.566206c-94.373876-129.051432-197.770004-421.056933 15.498349-714.363189zM511.455482 397.836843c4.898585-188.747751 167.520548-365.927091 374.174427-328.675702-66.034037-83.46968-154.070195-142.52946-254.338978-169.485518-50.120554 55.212869-173.609185 252.955197-119.835449 498.16122z"  horiz-adv-x="1024" />

    
    <glyph glyph-name="mall" unicode="&#59039;" d="M1009.092465 811.365209A83.682233 83.682233 0 0 1 925.338791 894.999814H122.165581a83.706047 83.706047 0 0 1-83.753674-83.634605L0.357209-24.957023a83.682233 83.682233 0 0 1 83.729861-83.634605h879.306418a83.682233 83.682233 0 0 1 83.729861 83.634605l-38.030884 836.346046z m-485.518884-501.52186c-174.08 0-315.177674 140.907163-315.177674 314.749023 0 7.477581 0.619163 14.764651 1.119256 22.146977H209.562791a42.245953 42.245953 0 0 0 84.444279 0h0.762046c-0.714419-7.787163-2.333767-15.336186-2.333767-23.290047 0-126.999814 103.090605-229.995163 230.28093-229.995162 127.21414 0 230.304744 102.995349 230.304744 229.995162a105.257674 105.257674 0 0 1-1.190697 14.050233 44.222512 44.222512 0 0 0-0.642977 5.072372 145.265116 145.265116 0 0 0-0.476279 4.143628h0.357209a43.341395 43.341395 0 0 0 86.682791-0.952558v-0.595349c0.452465-6.834605 0.952558-13.645395 0.952558-20.575256 0.023814-173.84186-141.07386-314.772837-315.153861-314.772837z"  horiz-adv-x="1047" />

    
    <glyph glyph-name="config" unicode="&#59040;" d="M42.657684 48.047158C8.084211 13.473684 8.084211-45.810526 42.657684-80.384c19.779368-19.779368 44.463158-29.642105 69.173895-29.642105 24.710737 0 49.394526 9.862737 64.215579 24.683789L482.357895 220.968421l-133.389474 128.458105L42.657684 48.047158z m760.832 563.2L936.879158 680.421053l69.146947 133.389473L941.810526 878.026105 808.421053 808.879158l-69.173895-133.389474-163.031579-158.10021 69.173895-69.173895 158.10021 163.031579zM833.131789 260.500211h-14.821052c-24.710737 0-44.463158-4.958316-64.242526-9.889685L378.610526 631.026526c4.931368 19.752421 9.889684 39.504842 9.889685 64.215579V710.063158c-4.958316 93.857684-88.926316 167.962947-182.810948 167.962947-29.642105 0-59.284211-4.931368-79.036631-19.752421l123.499789-123.499789c4.958316-4.958316 9.889684-9.889684 9.889684-19.779369 9.889684-19.752421 4.931368-49.394526-14.821052-64.215579-9.889684-14.821053-24.710737-19.752421-39.53179-19.752421-9.862737 0-14.821053 0-24.683789 4.931369-4.958316 4.931368-14.821053 4.931368-19.779369 14.821052L37.726316 774.278737C27.836632 749.594947 17.973895 719.952842 17.973895 695.242105c0-98.816 74.105263-177.852632 172.894316-182.784h14.821052c24.710737 0 44.463158 4.931368 64.242526 9.862737l380.389053-380.389053c-4.931368-19.779368-9.862737-39.531789-9.862737-64.242526v-14.821052c4.931368-98.789053 83.968-172.894316 182.784-172.894316 29.642105 0 54.352842 4.931368 79.036632 19.752421L778.778947 33.226105c-4.931368 4.958316-9.889684 14.821053-14.821052 19.779369-9.889684 19.752421-4.931368 49.394526 14.821052 64.215579 9.889684 9.889684 29.642105 19.752421 44.463158 19.752421 4.931368 0 14.821053 0 19.752421-4.931369 9.889684-4.931368 14.821053-4.931368 19.779369-14.821052l123.499789-123.49979c9.889684 24.683789 19.752421 49.394526 19.752421 79.036632 0 98.816-74.105263 182.784-172.894316 187.742316z"  horiz-adv-x="1024" />

    
    <glyph glyph-name="books" unicode="&#59041;" d="M985.693091-69.352727l-181.946182-33.978182a46.242909 46.242909 0 1 0-16.989091 90.996364l181.946182 33.978181a46.266182 46.266182 0 1 0 16.989091-90.996363z m-25.483636 136.471272l-181.946182-33.978181a46.242909 46.242909 0 0 0-53.992728 37.003636l-67.956363 363.892364a46.266182 46.266182 0 0 0 37.003636 53.992727l181.969455 33.978182a46.266182 46.266182 0 0 0 53.969454-37.003637l67.956364-363.915636c4.654545-25.134545-11.869091-49.268364-37.003636-53.992727zM555.287273-122.042182h-185.088a46.266182 46.266182 0 0 0-46.289455 46.289455V525.800727c0 25.576727 20.712727 46.289455 46.289455 46.289455h185.088c25.576727 0 46.289455-20.712727 46.289454-46.289455v-601.553454c0-25.553455-20.712727-46.289455-46.289454-46.289455z m0 740.398546h-185.088a46.266182 46.266182 0 0 0-46.289455 46.266181V849.733818C323.909818 875.287273 344.622545 896 370.199273 896h185.088c25.576727 0 46.289455-20.712727 46.289454-46.266182v-185.111273c0-25.530182-20.712727-46.266182-46.289454-46.266181zM231.377455-122.042182H46.266182A46.266182 46.266182 0 0 0 0-75.752727V294.4c0 25.6 20.712727 46.289455 46.266182 46.289455h185.111273c25.553455 0 46.266182-20.712727 46.266181-46.289455v-370.176c0-25.553455-20.712727-46.289455-46.266181-46.289455z m0 509.021091H46.266182A46.266182 46.266182 0 0 0 0 433.268364V618.356364c0 25.553455 20.712727 46.266182 46.266182 46.266181h185.111273c25.553455 0 46.266182-20.712727 46.266181-46.266181v-185.088c0-25.553455-20.712727-46.289455-46.266181-46.289455z"  horiz-adv-x="1024" />

    
    <glyph glyph-name="briefcase" unicode="&#59042;" d="M1023.422359 342.331077c-23.552-16.226462-52.617846-30.877538-86.908718-43.690667-91.713641-34.343385-221.078974-55.611077-361.025641-60.442256a62.83159 62.83159 0 0 0-13.784615-19.902359c-13.128205-12.865641-29.774769-19.324718-49.88718-19.324718-18.642051 0-34.605949 6.669128-47.891692 19.954872a66.691282 66.691282 0 0 0-13.600821 19.324718l-2.888205 0.078769C252.455385 245.523692 91.372308 282.834051 5.618872 340.703179a279.840821 279.840821 0 0 0-5.041231 3.465847L0 344.615385v-381.584411C0-87.171282 41.695179-128 92.947692-128h838.104616c51.252513 0 92.947692 40.828718 92.947692 91.030974V342.777436l-0.577641-0.446359zM45.449846 410.624c74.043077-50.858667 225.28-85.254564 404.611282-92.002462l4.46359-0.131282a67.21641 67.21641 0 0 0 9.924923 12.156718 67.584 67.584 0 0 0 48.836923 19.902359c19.114667 0 35.262359-6.774154 48.416821-20.322461 3.518359-3.597128 6.642872-7.588103 9.321025-11.867898 132.962462 4.46359 254.949744 24.549744 340.414359 57.160205 39.463385 15.044923 69.605744 32.164103 89.613128 50.858667 10.738872 10.029949 18.116923 20.138667 22.370462 30.536205l0.577641 1.417846V627.396923a92.973949 92.973949 0 0 1-92.947692 92.790154h-144.357744V832.695795c0 31.954051-23.552 58.551795-54.245743 63.304205H291.551179a64.196923 64.196923 0 0 1-54.245743-63.304205v-112.508718H92.947692A92.973949 92.973949 0 0 1 0 627.396923v-159.691487l0.577641-2.310564c4.647385-19.062154 19.666051-37.441641 44.898462-54.770872zM342.173538 781.784615c0 9.137231 7.430564 16.567795 16.594052 16.567795h306.46482c9.163487 0 16.594051-7.430564 16.594052-16.567795v-61.597538H342.173538V781.784615z"  horiz-adv-x="1024" />

    
    <glyph glyph-name="house" unicode="&#59037;" d="M1163.452632 265.431579l-29.642106-29.642105c-29.642105-29.642105-81.515789-29.642105-111.157894 0l-81.51579 81.515789V-119.915789H711.410526V228.378947h-237.136842V-119.915789H244.547368V317.305263L163.031579 235.789474c-29.642105-29.642105-81.515789-29.642105-111.157895 0l-29.642105 29.642105c-29.642105 29.642105-29.642105 81.515789 0 111.157895L518.736842 865.684211C540.968421 887.915789 563.2 895.326316 592.842105 887.915789c22.231579 7.410526 51.873684 0 74.105263-22.231578L1163.452632 369.178947c29.642105-22.231579 29.642105-74.105263 0-103.747368zM904.084211 887.915789h155.621052v-311.242105L904.084211 732.294737V887.915789z"  horiz-adv-x="1185" />

    
    <glyph glyph-name="cycle" unicode="&#59038;" d="M358.702545 656.8727269999999a177.943273 177.943273 0 0 1-177.803636 177.803637 177.943273 177.943273 0 0 1-177.826909-177.803637c0-49.058909 18.385455-91.997091 49.058909-122.647272-6.144-36.770909-12.264727-73.588364-12.264727-110.359273 0-171.706182 91.973818-318.859636 220.741818-398.568727l36.770909 147.153454c-73.565091 61.323636-116.48 153.297455-116.48 251.415273 0 18.385455 0 36.770909 6.120727 55.156363 91.973818 0 171.682909 79.732364 171.682909 177.850182zM512 754.967273c61.323636 0 116.503273-18.385455 165.562182-42.914909-6.144-18.385455-12.264727-42.938182-12.264727-61.323637a177.943273 177.943273 0 0 1 177.803636-177.803636 177.943273 177.943273 0 0 1 177.826909 177.803636 177.943273 177.943273 0 0 1-177.803636 177.803637c-24.529455 0-42.938182-6.120727-67.467637-12.241455A477.742545 477.742545 0 0 1 512 896c-67.444364 0-134.888727-12.264727-190.091636-42.914909l79.709091-116.503273A347.229091 347.229091 0 0 0 512 754.967273z m331.124364-343.365818c-6.144-122.647273-73.588364-226.885818-177.826909-275.944728-30.650182 55.202909-91.973818 98.117818-159.418182 98.117818a177.943273 177.943273 0 0 1-177.826909-177.803636 177.943273 177.943273 0 0 1 177.803636-177.850182c73.588364 0 134.912 42.938182 165.562182 110.382546 183.970909 67.444364 312.738909 239.127273 312.738909 441.483636v30.650182c-6.144-6.120727-141.032727-49.035636-141.032727-49.035636z"  horiz-adv-x="1024" />

    
    <glyph glyph-name="user-o1" unicode="&#59044;" d="M958.571789 354.142316c76.207158 55.457684 127.029895 145.084632 127.029895 243.173052 0 166.426947-131.287579 298.684632-296.421052 298.684632s-296.421053-132.257684-296.421053-298.684632c0-102.4 50.822737-191.973053 127.029895-243.173052C446.194526 285.857684 323.368421 115.226947 323.368421-85.315368V-128h84.668632v42.684632c0 213.315368 169.391158 384 381.143579 384 211.698526 0 381.089684-170.684632 381.089684-384 0-12.826947 0-29.911579-4.20379-42.684632h84.668632v42.684632a460.8 460.8 0 0 1-292.163369 439.457684zM789.180632 384c-118.568421 0-211.752421 93.884632-211.752421 213.315368 0 119.484632 93.184 213.369263 211.752421 213.369264 118.568421 0 211.698526-93.884632 211.698526-213.369264 0-119.430737-93.130105-213.315368-211.698526-213.315368z m-501.975579 12.773053C244.843789 435.2 219.351579 490.711579 219.351579 554.684632c0 106.657684 76.261053 196.230737 177.852632 209.057684l12.719157-85.369263c-59.284211-8.515368-105.849263-63.973053-105.849263-128 0-72.488421 55.026526-128 127.029895-128v-85.315369c-165.133474 0-296.421053-132.257684-296.421053-298.684631 0-12.773053 0-29.857684 4.257685-42.630737H54.272c0 12.773053-4.203789 29.857684-4.203789 42.630737 0 166.426947 97.387789 302.942316 237.136842 358.4z"  horiz-adv-x="1293" />

    
    <glyph glyph-name="certification" unicode="&#59045;" d="M926.1568 702.208V737.024l-72.2688 1.1008h-0.2304c-8.2432 0.3328-82.944 3.7376-158.72 34.432-84.7104 34.304-138.9312 73.472-139.3664 73.8048L511.7952 877.9008l-43.136-31.36c-2.2016-1.6384-54.8864-39.6032-139.5968-74.0096-81.0496-33.024-158.1824-34.432-158.9504-34.432l-72.4736-1.1008v-416.6912c0-95.8208 54.8864-203.1616 150.6816-294.6816 41.2672-39.3984 87.2448-72.96 132.992-97.024 47.5392-24.9856 92.6208-38.0672 130.688-38.0672 37.8368 0 83.3792 13.4144 131.584 38.7328 45.4144 23.9616 91.0592 57.2928 131.968 96.3584 43.5712 41.472 80.0768 88.2176 105.8304 135.168 29.7984 54.5792 44.8768 108.1344 44.8768 159.5136l-0.1024 381.9264z m-416.256 87.2448l1.8688 1.4336 1.9968-1.4336c6.3744-4.608 65.4336-46.08 154.3168-82.2784 87.1168-35.328 168.96-39.168 184.4736-39.6032l2.8672-0.1024 0.2048-347.264c0.128-76.4672-46.848-165.2224-128.7936-243.6608-72.2688-69.0688-158.6176-115.5072-214.8352-115.5072-26.0608 0-61.1584 10.9056-98.6624 30.592-39.3984 20.6848-79.5392 50.048-116.1728 85.0176-81.9456 78.336-128.9216 167.0912-128.9216 243.6608V667.5712l2.9696 0.128c3.6352 0 90.88 1.6384 184.4736 39.6032 88.0128 35.7376 147.712 77.44 154.2144 82.048v0.1024zM733.44 541.7472a35.456 35.456 0 0 1-49.8432 0l-240.6656-240.7936-102.528 102.528a35.456 35.456 0 0 1-49.8432 0 35.456 35.456 0 0 1 0-49.8432l127.3856-127.3856a35.4816 35.4816 0 0 1 49.8176 0L733.44 491.904a35.456 35.456 0 0 1 0 49.8432z"  horiz-adv-x="1024" />

    
    <glyph glyph-name="lock-check" unicode="&#59046;" d="M751.394595 374.645622a38.330811 38.330811 0 0 1-53.884541 0l-260.179027-260.317406-110.841081 110.841081a38.330811 38.330811 0 0 1-53.884541 0 38.330811 38.330811 0 0 1 0-53.88454l137.714163-137.714162a38.358486 38.358486 0 0 1 53.856864 0L751.394595 320.761081a38.330811 38.330811 0 0 1 0 53.884541z m106.551351 131.238054h-691.891892c-38.192432 0-69.189189-32.712649-69.189189-73.119135v-487.61773C96.864865-95.259676 127.861622-128 166.054054-128h691.891892c38.192432 0 69.189189 32.740324 69.189189 73.146811v487.645405c0 40.378811-30.996757 73.091459-69.189189 73.09146z m0-511.972325c0-40.406486-7.887568-48.764541-46.107676-48.76454H212.16173c-38.192432 0-46.107676 8.38573-46.107676 48.76454V384c0 40.406486 7.887568 48.764541 46.107676 48.764541h599.67654c38.192432 0 46.135351-8.358054 46.135352-48.764541v-390.088649zM185.094919 542.692324c19.234595 0 34.843676 16.19027 35.369513 36.338162h0.083027c31.273514 139.734486 149.725405 243.822703 291.480217 243.822703 110.78573 0 207.235459-63.737081 259.044324-158.249513 5.396757-12.924541 17.60173-21.919135 31.827027-21.919135 19.179243 0 34.760649 16.439351 34.760649 36.725621 0 7.942919-2.380108 15.249297-6.420757 21.254919C767.446486 817.290378 648.607135 896 512 896 333.491892 896 184.873514 766.505514 150.638703 588.60627a38.745946 38.745946 0 0 1-0.442811-2.214054l-0.498162-2.68454h0.166054a39.991351 39.991351 0 0 1-0.166054-3.597838c0-20.67373 15.830486-37.417514 35.369513-37.417514z"  horiz-adv-x="1024" />

    
    <glyph glyph-name="khgl-pc" unicode="&#59047;" d="M256.489739 639.510261a255.510261 255.510261 0 1 1 511.020522 0 255.510261 255.510261 0 0 1-511.020522 0zM575.888696 384L512 256.222609l63.888696-191.621566-63.888696-63.844173-63.888696 63.844173 63.888696 191.666087-63.888696 127.73287A511.020522 511.020522 0 0 1 0.979478-127.020522h1022.041044A511.020522 511.020522 0 0 1 575.888696 384z"  horiz-adv-x="1024" />

    
    <glyph glyph-name="lxrgl-pc" unicode="&#59048;" d="M0 112.951652h30.096696a60.237913 60.237913 0 1 1 0 120.475826H0v90.379131h30.096696a60.237913 60.237913 0 1 1 0 120.431304H0v90.37913h30.096696a60.237913 60.237913 0 1 1 0 120.431305H0V775.568696A120.475826 120.475826 0 0 0 120.431304 896h783.137392A120.475826 120.475826 0 0 0 1024 775.568696v-783.137392A120.475826 120.475826 0 0 0 903.568696-128H120.431304A120.475826 120.475826 0 0 0 0-7.568696v120.520348zM272.384 577.001739h-0.089043c35.84-202.351304 154.045217-370.643478 354.660173-504.876522v0.044522a120.475826 120.475826 0 1 1-20.925217 184.720696c-74.529391 67.584-129.647304 143.538087-165.175652 227.951304a120.475826 120.475826 0 1 1-168.514783 92.204522v-0.044522z"  horiz-adv-x="1024" />

    
    <glyph glyph-name="xsxs-pc" unicode="&#59049;" d="M862.118582 205.912898h-12.42156a161.658364 161.658364 0 0 1-153.599933-110.413865l-386.849223 5.387128c-49.330066 0.667826-88.731788 48.439631-87.930397 106.495954l0.089043 10.507126c0.801391 57.611105 41.049026 104.002737 89.800309 104.002737h1.024l403.322259-5.609736c64.823624-0.801391 126.352641 25.510945 172.299056 74.529359 44.165546 46.970414 69.008666 109.345344 69.8991 175.860793 2.003477 139.842722-103.423955 255.153976-235.074681 256.979366l-417.435644 5.743302A161.880973 161.880973 0 0 1 174.168968 895.999555h-12.42156C72.436838 895.999555 0 824.007934 0 735.231625v-12.377038c0-88.776309 72.436838-160.723408 161.747408-160.723409h12.466081a161.613843 161.613843 0 0 1 155.959585 118.427775l390.544526-5.43165c49.330066-0.712348 88.776309-48.484153 87.930396-106.540475-0.445217-29.473378-10.907821-56.676149-29.740509-76.577358-16.918254-17.897731-38.867461-27.826075-61.172843-27.380858l-403.322259 5.69878c-131.383595 1.958956-240.2392-110.413865-242.198156-250.212065l-0.133565-10.551648c-1.958956-139.887244 103.468477-255.064933 235.074681-256.979366l405.993562-5.743302A161.836451 161.836451 0 0 1 849.830587-128h12.42156C951.562717-128 1023.999555-56.008379 1023.999555 32.76793v12.377038a161.391234 161.391234 0 0 1-161.880973 160.723409z"  horiz-adv-x="1024" />

    
    <glyph glyph-name="xssj-pc" unicode="&#59050;" d="M904.681739 896H119.318261C78.002087 896 44.521739 863.232 44.521739 822.850783v-877.701566C44.521739-95.232 78.002087-128 119.318261-128h785.363478c41.316174 0 74.796522 32.768 74.796522 73.149217V822.850783C979.478261 863.232 945.997913 896 904.681739 896z m-89.622261-207.204174a37.843478 37.843478 0 0 0 51.110957-13.401043 36.151652 36.151652 0 0 0-13.712696-49.953392l-64.645565-36.507826a290.726957 290.726957 0 0 1-37.442783 63.309913l64.690087 36.507826z m-149.682087 119.629913a37.843478 37.843478 0 0 0 51.110957 13.356522c17.897739-10.061913 24.041739-32.456348 13.668174-49.90887l-37.398261-63.354434a300.566261 300.566261 0 0 1-64.690087 36.641391l37.309217 63.265391zM474.601739 838.878609a36.953043 36.953043 0 0 0 37.398261 36.507826 36.953043 36.953043 0 0 0 37.398261-36.507826v-73.149218a308.98087 308.98087 0 0 1-74.796522 0V838.878609z m-167.090087-17.007305a37.843478 37.843478 0 0 0 51.066435-13.356521l37.398261-63.354435a300.610783 300.610783 0 0 1-64.734609-36.59687L293.843478 771.917913a36.151652 36.151652 0 0 0 13.668174 49.953391zM102.934261 475.536696a36.953043 36.953043 0 0 0 37.398261 36.596869h74.796521a288.946087 288.946087 0 0 1 0-73.149217h-74.796521a36.953043 36.953043 0 0 0-37.398261 36.552348z m105.828174-213.348174a37.843478 37.843478 0 0 0-51.066435 13.356521 36.151652 36.151652 0 0 0 13.668174 49.997914l64.734609 36.507826c9.705739-22.528 22.26087-43.809391 37.39826-63.309913l-64.734608-36.552348z m27.425391 326.789565l-64.734609 36.59687a36.151652 36.151652 0 0 0-13.668174 49.953391 37.843478 37.843478 0 0 0 51.066435 13.356522l64.779131-36.552348h0.044521a290.726957 290.726957 0 0 1-37.487304-63.309913z m359.513044-662.127304H428.29913a28.182261 28.182261 0 0 0-28.493913 27.870608c0 4.808348 4.006957 8.726261 8.904348 8.726261h206.58087c4.897391 0 8.904348-3.917913 8.904348-8.726261a28.182261 28.182261 0 0 0-28.493913-27.870608z m28.493913 73.149217H399.805217a36.953043 36.953043 0 0 0-37.39826 36.552348 36.953043 36.953043 0 0 0 37.39826 36.596869h224.389566a36.953043 36.953043 0 0 0 37.39826-36.596869 36.953043 36.953043 0 0 0-37.39826-36.552348z m37.264695 311.785739v-128.934956c0-40.381217-33.480348-73.149217-74.796521-73.149218h-149.593044c-41.316174 0-74.796522 32.768-74.796522 73.149218v129.157565a216.82087 216.82087 0 0 0-74.662956 163.394782c0 121.232696 100.441043 219.492174 224.389565 219.492174 123.948522 0 224.389565-98.259478 224.389565-219.492174a216.82087 216.82087 0 0 0-74.930087-163.617391z m204.621913-36.329739a37.843478 37.843478 0 0 0-51.066434-13.356522l-64.690087 36.507826a290.726957 290.726957 0 0 1 37.487304 63.22087l64.556522-36.418783c17.897739-10.106435 24.041739-32.50087 13.712695-49.953391z m17.452522 163.394783h-74.662956c3.116522 24.264348 3.116522 48.840348 0 73.149217h74.662956a36.953043 36.953043 0 0 0 37.398261-36.59687 36.953043 36.953043 0 0 0-37.398261-36.552347z"  horiz-adv-x="1024" />

    
    <glyph glyph-name="cpgl-pc" unicode="&#59051;" d="M858.532922 689.010387c28.349255 10.592029 32.532661 26.34656 32.532661 34.802382 0 8.455822-4.183406 24.210352-32.488157 34.802382L516.383676 886.787605c-32.666174 12.283194-88.385588 12.283194-121.051762 0l-342.238255-128.172454c-28.260246-10.592029-32.488157-26.34656-32.488157-34.802382 0-8.455822 4.227911-24.210352 32.488157-34.802382l342.238255-128.172454c16.288583-6.141597 37.828676-9.479421 60.525881-9.479421 22.697205 0 44.192794 3.337824 60.525881 9.479421l342.149246 128.172454zM373.880829 516.289104L68.714677 632.311878a61.593985 61.593985 0 0 1-22.252162 4.539441C17.890738 636.851319 0 614.376635 0 579.485245V192.831675c0-40.721457 26.569082-81.576427 61.772002-95.016733l300.982746-116.067278c7.92177-3.026294 13.974358-4.583945 21.985136-4.583945 32.132122 0 54.33978 24.6999 54.33978 57.410578V421.138859c0 38.273719-28.082229 80.953366-65.15433 95.105741z m195.552002-459.774175c-10.681038 3.159807-27.103134 15.710027-27.103134 32.176626l-0.445043 45.127385c0 16.4666 16.600113 29.061324 27.770698 32.399149l19.715416 6.230605c4.005389 13.885349 9.523925 27.37016 16.377591 40.231909l-10.681038 19.75992a35.113912 35.113912 0 0 0 5.696554 39.964884l31.464557 31.687079a34.26833 34.26833 0 0 0 39.608849 5.073493l19.047851-11.304099a206.055022 206.055022 0 0 0 40.498935 15.398496l5.741058 16.911644c4.005389 14.018862 17.890738 25.189448 31.464557 25.189447l47.041071 0.489548c8.900865 0 21.139554-4.005389 28.482768-23.142249l6.141597-14.686427c14.775436-4.227911 29.105828-10.146986 42.724151-17.579208l14.152375 9.790951c5.785562 3.204311 16.4666 4.316919 16.4666 3.471338V579.485245c0 19.848929-4.984484 37.205615-19.715416 47.530618-15.576514 10.992568-34.26833 12.906254-54.250771 5.296015l-302.095354-116.067278c-35.024903-13.351297-63.018123-55.096354-63.018123-95.061237v-386.609066c0-22.029641 9.167891-39.564344 23.142248-49.3998 7.476726-5.25151 17.045156-7.92177 26.791604-7.92177 7.565735 0 15.977052 1.602156 24.432874 4.895476l40.810465 18.558303 4.717459 8.900865a214.377331 214.377331 0 0 0-17.80173 40.85497l-17.178669 6.052588z m222.432613 179.307923c-68.581164 0-124.389587-56.609501-124.389587-126.16976 0-69.604763 55.808423-126.16976 124.389587-126.169759s124.434091 56.564996 124.434091 126.169759c0 69.560259-55.808423 126.16976-124.434091 126.16976z m-1.780173-173.121822a47.397105 47.397105 0 0 0-48.287192 46.507019 47.486114 47.486114 0 0 0 48.287192 48.954757 47.486114 47.486114 0 0 0 45.839454-48.954757 47.44161 47.44161 0 0 0-45.839454-46.551523z m232.89113 72.319527c0 7.877265-3.426833 14.997957-10.859056 17.223174l-30.796992 7.832761c-4.806467 19.581903-11.126081 38.051197-21.228563 54.918336l13.929854 24.566387a20.471989 20.471989 0 0 1-2.892781 22.697206l-31.28654 31.865096a19.403885 19.403885 0 0 1-22.252163 3.248816l-24.6999-13.707332a194.216872 194.216872 0 0 1-53.360685 22.074145l-8.010778 22.430179c-2.225216 7.565735-10.102482 14.775436-17.846234 14.775436l-44.682342-0.756574a20.471989 20.471989 0 0 1-18.11326-14.018862l-8.2333-25.768004c-18.469295-4.895476-35.91499-11.037072-51.892042-20.783519l-25.990526 15.13147a18.825329 18.825329 0 0 1-9.034377 2.180712 18.780825 18.780825 0 0 1-13.351298-5.117997l-31.420053-31.776088a20.382981 20.382981 0 0 1-3.248815-22.563692l14.508409-26.880612a199.824417 199.824417 0 0 1-21.050545-51.75853l-27.325655-8.633839c-7.476726-2.225216-17.534704-10.458516-17.534704-18.291277l0.445043-45.127385c0-7.877265 9.612934-16.110565 17.089661-18.335782l24.6999-8.633838c4.583945-18.42479 13.084271-35.825981 22.385675-51.803034l-13.840845-26.880612a20.605502 20.605502 0 0 1 3.560346-22.697205l31.59807-31.909601a19.581903 19.581903 0 0 1 13.751837-5.340519c3.115303 0 6.097092 0.712069 8.678343 2.091703l26.03503 14.463906c16.15507-9.87996 33.645269-17.356687 51.892042-22.163154l8.2333-26.702594c2.225216-7.521231 9.701943-18.42479 17.445695-18.424791l45.527924-0.044504c7.743752 0 15.487505 10.948064 17.668217 18.469295l8.010778 23.36477c19.047851 4.672954 36.983094 13.573819 53.405189 23.409274l24.6999-13.039767c2.447738-1.33513 5.340519-2.002695 8.2333-2.002694a20.204963 20.204963 0 0 1 14.107871 5.607545l31.464558 32.043113a20.694511 20.694511 0 0 1 3.204311 22.74171l-13.262289 24.655396c10.235995 17.045156 17.80173 35.60346 22.608197 54.96284l28.082229 7.832761c7.476726 2.225216 11.571124 10.458516 11.571124 18.335782l-0.62306 46.284497z m-231.110957-164.799513c-75.790864 0-137.518362 62.57308-137.518362 139.432048s61.727498 139.432048 137.518362 139.432049c75.790864 0 137.518362-62.57308 137.518362-139.432049 0-76.903473-61.727498-139.432048-137.518362-139.432048z"  horiz-adv-x="1024" />

    
    <glyph glyph-name="cpjg-pc" unicode="&#59052;" d="M0 112.951652h30.096696a60.237913 60.237913 0 1 1 0 120.475826H0v90.379131h30.096696a60.237913 60.237913 0 1 1 0 120.431304H0v90.37913h30.096696a60.237913 60.237913 0 1 1 0 120.431305H0V775.568696A120.475826 120.475826 0 0 0 120.431304 896h783.137392A120.475826 120.475826 0 0 0 1024 775.568696v-783.137392A120.475826 120.475826 0 0 0 903.568696-128H120.431304A120.475826 120.475826 0 0 0 0-7.568696v120.520348zM764.794435 630.561391a51.066435 51.066435 0 1 1-72.392348 72.258783l-168.96-169.004522-168.96 169.182609a51.244522 51.244522 0 0 1-72.392348 0 51.244522 51.244522 0 0 1 0-72.43687l117.849044-117.849043H348.42713a51.110957 51.110957 0 0 1 0-102.221913h123.904v-65.26887H348.42713a51.110957 51.110957 0 0 1 0-102.221913h123.904v-141.801739a51.110957 51.110957 0 0 1 102.221913 0v141.801739h123.904a51.110957 51.110957 0 0 1 0 102.221913h-123.904v65.26887h123.904a51.110957 51.110957 0 0 1 0 102.221913h-51.511652l117.849044 117.849043z"  horiz-adv-x="1024" />

    
    <glyph glyph-name="search" unicode="&#59025;" d="M949.324526 421.816285C949.324526 683.213842 736.40482 896 474.562103 896 212.986483 896 0.022261 683.213842 0.022261 421.816285c0-261.397557 212.919706-474.183715 474.539842-474.183715 68.554536 0 134.660696 14.33413 196.493327 42.557231a36.235969 36.235969 0 0 1 18.028953 48.255271 36.414033 36.414033 0 0 1-48.522366 17.939921 393.876973 393.876973 0 0 0-165.465722-35.79081c-221.911925 0-402.067904 180.022432-402.067904 401.222102S253.18437 822.99387 474.562103 822.99387s401.533713-180.022432 401.533713-401.222101a399.753076 399.753076 0 0 0-111.824022-277.868452 36.369517 36.369517 0 0 1 0.934834-51.593966c1.20193-0.979351 2.581924-1.335478 3.739338-2.359344 0.979351-1.335478 1.602574-3.116115 2.759988-4.49611l188.836587-201.790723c6.632874-7.122549 16.070252-11.574143 26.531496-11.574142a36.859192 36.859192 0 0 1 36.814676 36.547581 36.235969 36.235969 0 0 1-9.793505 24.83989l-174.057297 186.076599a470.533409 470.533409 0 0 1 109.286615 302.263183z"  horiz-adv-x="1024" />

    
    <glyph glyph-name="lock" unicode="&#59054;" d="M523.753739 335.248696c-45.412174 0-82.276174-38.244174-82.276174-85.348174 0-33.970087 19.322435-63.087304 47.014957-76.8v-93.851826c0-20.21287 15.805217-36.59687 35.261217-36.59687 19.456 0 35.261217 16.384 35.261218 36.59687v93.851826a85.348174 85.348174 0 0 1 46.970434 76.8c0 47.104-36.819478 85.348174-82.231652 85.348174z m340.72487 170.651826H159.565913C120.609391 505.900522 89.043478 473.177043 89.043478 432.751304v-487.602087C89.043478-95.232 120.609391-128 159.565913-128h704.912696c38.912 0 70.477913 32.768 70.477913 73.149217V432.751304c0 40.425739-31.610435 73.149217-70.477913 73.149218z m0-512c0-40.381217-8.058435-48.751304-47.014957-48.751305H206.58087c-38.956522 0-46.970435 8.370087-46.970435 48.751305V384c0 40.381217 8.013913 48.751304 46.970435 48.751304H817.41913c38.956522 0 47.014957-8.370087 47.014957-48.751304v-390.099478zM178.977391 542.675478c19.589565 0 35.483826 16.205913 36.018087 36.374261h0.089044c31.833043 139.709217 152.576 243.801043 296.96 243.801044 112.862609 0 211.122087-63.75513 263.924869-158.274783 5.520696-12.911304 17.942261-21.904696 32.411826-21.904696 19.589565 0 35.439304 16.473043 35.439305 36.730435a37.531826 37.531826 0 0 1-6.544696 21.281391C772.229565 817.330087 651.174957 896 512 896 330.128696 896 178.710261 766.530783 143.805217 588.621913a38.110609 38.110609 0 0 1-0.445217-2.226087l-0.489739-2.671304h0.178087a39.268174 39.268174 0 0 1-0.178087-3.650783c0-20.658087 16.161391-37.398261 36.062609-37.398261z"  horiz-adv-x="1024" />

    
    <glyph glyph-name="user-o" unicode="&#59055;" d="M511.999332 826.056439c46.747765 0 90.646143-18.253889 123.68123-51.244455a173.768121 173.768121 0 0 0 51.199933-123.68123c0-46.747765-18.164846-90.646143-51.199933-123.68123a173.768121 173.768121 0 0 0-123.68123-51.199933 173.768121 173.768121 0 0 0-123.68123 51.199933A173.768121 173.768121 0 0 0 337.118169 651.130754c0 46.747765 18.164846 90.646143 51.199933 123.68123a173.768121 173.768121 0 0 0 123.68123 51.199933zM511.999332 896a244.869246 244.869246 0 1 1 0-489.738492 244.869246 244.869246 0 0 1 0 489.738492zM991.453315-127.998664a32.367262 32.367262 0 0 0-32.278218 28.716484c-24.531446 226.17014-216.820587 396.688178-447.175765 396.688178-230.399699 0-422.599797-170.518038-447.175764-396.688178a32.411784 32.411784 0 0 0-35.795432-28.493876 32.233697 32.233697 0 0 0-28.850049 35.350215A505.988905 505.988905 0 0 0 166.956304 230.400868 516.941239 516.941239 0 0 0 511.999332 361.739827a516.896717 516.896717 0 0 0 345.08755-131.338959 505.988905 505.988905 0 0 0 166.733696-322.782188 32.233697 32.233697 0 0 0-32.367263-35.617344z"  horiz-adv-x="1024" />

    
    </font>
</defs>
</svg>
